<?xml version="1.0" encoding="UTF-8"?>
<svg id="Logo_Castoon_x5F_Quadri" xmlns="http://www.w3.org/2000/svg" viewBox="0 0 708.66 708.66">
  <defs>
    <style>
      .cls-1 {
        fill: #2e89e5;
      }

      .cls-2 {
        fill: #e3562b;
      }

      .cls-3 {
        fill: #ffab24;
      }
    </style>
  </defs>
  <path class="cls-1" d="M257.29,281.12l49.19-8.1,33.47,202.96,74.66-12.9,8.49,49.13-123.4,21.32-.13-.78-.77.13-41.51-251.77Z"/>
  <path class="cls-3" d="M206.15,241.45c7.24,7.88,15.24,14.86,23.75,21.34,2.19,1.67,6.27,1.84,8.78,1.15,2.64-.73,5.51-2.77,6.81-5.24,1.4-2.64,2.1-5.85,1.15-8.78l-1.15-2.72c-1.01-1.71-2.38-3.07-4.09-4.09-.31-.24-.62-.48-.94-.72.77.59,1.54,1.19,2.31,1.78-7.36-5.69-14.22-11.99-20.51-18.84-1.92-2.1-5.26-3.34-8.06-3.34s-6.13,1.24-8.06,3.34c-1.99,2.17-3.47,5.02-3.34,8.06.14,3.09,1.22,5.75,3.34,8.06h0Z"/>
  <path class="cls-3" d="M225.44,274.29c-1.72-.18-3.76-.13-5.42-.63,1.7.23,1.91.26.63.08-.54-.08-1.09-.15-1.63-.23-.83-.12-1.65-.25-2.48-.38-4.22-.67-8.41-1.47-12.58-2.39-7.68-1.69-15.25-3.8-22.71-6.29-5.66-1.89-12.7,2.18-14.01,7.96-1.43,6.29,1.9,11.99,7.96,14.01,16.32,5.45,33.15,8.85,50.25,10.66,5.95.63,11.65-5.69,11.39-11.39-.3-6.71-5.02-10.72-11.39-11.39h0Z"/>
  <path class="cls-2" d="M379.48,269.62c-.44,5.41-.65,10.61-.65,15.59,0,5.41.21,10.71.65,15.91.43,5.2.97,10.5,1.62,15.91,1.08,10.83,2.7,21.54,4.87,32.14,2.38,10.83,5.41,21.32,9.09,31.49,1.73,4.98,3.68,9.74,5.85,14.29,2.16,4.76,4.76,9.2,7.79,13.31.65,1.08,1.4,2.06,2.27,2.92.65.87,1.41,1.62,2.27,2.27,1.73,1.08,3.35,1.52,4.87,1.3,1.73-.21,3.79-1.4,6.17-3.57,1.73-1.3,3.14-2.92,4.22-4.87l3.25-5.2c3.68-5.85,6.7-11.9,9.09-18.18,2.6-6.06,4.55-12.44,5.85-19.16l.65-1.3c0-.43.11-.76.33-.98.21-.86.65-1.41,1.3-1.62.65-.43,1.4-.54,2.27-.33l15.58,3.89c4.98,1.08,10.17,2.27,15.59,3.57,1.08.43,1.84.97,2.27,1.62.43.44.43,1.41,0,2.92-1.52,7.58-3.68,14.94-6.49,22.08-2.6,7.14-5.85,14.18-9.74,21.1-1.74,3.25-3.57,6.5-5.52,9.74-1.95,3.03-4.22,5.96-6.82,8.77-4.55,5.41-9.53,9.74-14.94,12.99-5.63,3.46-11.91,5.52-18.83,6.17-1.74.21-3.46.33-5.2.33-4.55,0-8.88-.65-12.99-1.95-5.85-1.74-11.26-4.65-16.24-8.77-5.2-4.33-9.42-9.09-12.66-14.29-3.46-5.41-6.61-11.04-9.42-16.88-4.33-9.31-8.01-18.94-11.04-28.9-3.04-9.96-5.63-20.02-7.79-30.2-1.08-5.85-2.06-11.69-2.92-17.53-.87-5.85-1.62-11.69-2.27-17.53-.44-3.46-.76-7.03-.98-10.72,0-3.68-.11-7.36-.33-11.04-.22-3.03-.32-5.95-.32-8.77v-2.6c0-3.68.11-7.36.32-11.04.43-9.95,1.3-19.81,2.6-29.55,1.51-9.74,4.11-19.27,7.79-28.57,1.95-4.55,4.22-8.87,6.82-12.99,2.6-4.11,5.85-7.79,9.74-11.04,4.98-4.33,10.28-7.79,15.91-10.39,5.41-2.6,11.37-4.22,17.86-4.87h5.2c5.2,0,10.28.76,15.26,2.27,6.27,2.17,12.44,5.09,18.51,8.77,6.28,3.89,11.8,8.44,16.56,13.64,4.55,5.41,8.66,11.15,12.34,17.21,3.46,6.28,6.6,12.66,9.42,19.16,2.6,6.49,4.65,13.1,6.17,19.81.65,2.38,1.08,4.65,1.3,6.82.43,2.17.65,4.33.65,6.49.22.44.33.76.33.98,0,.65-.22,1.3-.65,1.95-.22.44-.98.65-2.28.65-5.19.87-10.28,1.74-15.26,2.6-4.98,1.08-10.07,2.17-15.26,3.24-1.08.22-1.95.11-2.6-.32-.65-.22-.98-.98-.98-2.28l-1.95-8.44c-.43-2.81-1.19-5.52-2.27-8.12-1.74-6.06-4.01-11.79-6.82-17.21-2.6-5.63-5.96-10.82-10.07-15.59-2.82-3.24-5.96-6.17-9.42-8.77-3.69-2.38-7.69-4-12.02-4.87-.65-.21-1.19-.33-1.62-.33-.65,0-1.3.11-1.95.33-4.11,1.08-7.58,2.92-10.39,5.52-2.82,2.6-4.98,5.84-6.49,9.74-1.74,4.11-3.04,8.33-3.9,12.66-.87,4.11-1.52,8.33-1.95,12.66-.65,5.41-1.19,10.72-1.62,15.91Z"/>
  <path class="cls-3" d="M471.12,319.99c-.86,5.8-1.71,11.6-2.57,17.4-.33,1.06-.38,2.11-.14,3.17.05,1.06.36,2.04.94,2.95.96,1.65,2.85,3.22,4.75,3.65,2.03.46,4.32.36,6.12-.8,1.62-1.04,3.36-2.76,3.65-4.75.86-5.8,1.71-11.6,2.57-17.4.33-1.06.38-2.11.14-3.17-.05-1.06-.36-2.04-.94-2.95-.96-1.65-2.85-3.22-4.75-3.65-2.03-.46-4.32-.36-6.12.8-1.62,1.04-3.36,2.76-3.65,4.75h0Z"/>
  <path class="cls-3" d="M506.28,353.32c8.76-15.26,18.31-30.05,28.63-44.3,2.45-3.38.69-9-2.85-10.87-4.12-2.18-8.26-.76-10.87,2.85-10.32,14.25-19.87,29.04-28.63,44.3-2.07,3.61-.96,8.86,2.85,10.87,3.78,2,8.66,1,10.87-2.85h0Z"/>
  <path class="cls-3" d="M517.61,378.65c.58-.48,1.16-.94,1.75-1.4l-1.61,1.24c3.77-2.88,7.88-5.26,12.24-7.12l-1.9.8c2.53-1.06,5.13-1.93,7.78-2.62,4.02-1.04,6.86-5.73,5.55-9.78-1.34-4.15-5.46-6.67-9.78-5.55-9.37,2.43-17.86,7.03-25.28,13.19-1.48,1.23-2.33,3.77-2.33,5.62,0,1.95.87,4.28,2.33,5.62,1.51,1.39,3.5,2.42,5.62,2.33s3.92-.91,5.62-2.33h0Z"/>
</svg>