<?xml version="1.0" encoding="UTF-8"?>
<svg id="Calque_1" xmlns="http://www.w3.org/2000/svg" viewBox="0 0 1417.32 708.66">
  <defs>
    <style>
      .cls-1 {
        fill: #2e89e5;
      }

      .cls-2 {
        fill: #e3562b;
      }

      .cls-3 {
        fill: #f79c07;
      }

      .cls-4 {
        fill: #72b7fc;
      }

      .cls-5 {
        fill: #31af97;
      }

      .cls-6 {
        fill: #ffab24;
      }
    </style>
  </defs>
  <g>
    <path class="cls-5" d="M474.12,291.13c.05-.93.01-1.81-.11-2.63-.2-2.58-.36-5.12-.46-7.62-.02-2.59-.13-5.18-.33-7.76-.17-1.75-.29-3.6-.37-5.54l-.24-5.54c-.35-3.96-.61-7.94-.78-11.91-.26-3.88-.52-7.8-.78-11.77l-.24-5.68c-.08-1.85-.2-3.69-.37-5.54-.18-2.12-.32-4.2-.4-6.23l-.26-6.1c-.02-.46-.13-.78-.32-.96-.19-.08-.47-.12-.84-.1-.82.31-1.6.48-2.34.51-.84-.06-1.58-.07-2.22-.04l-3.87.44c-1.29.15-2.54.25-3.74.3-.55.02-.93-.05-1.12-.23-.28-.17-.49-.53-.6-1.09-.12-.64-.19-1.33-.23-2.07s-.11-1.48-.23-2.21l-.47-4.42c-.06-1.48-.17-2.96-.33-4.43-.02-.46.06-.79.24-.98.17-.29.49-.48.95-.6.55-.11,1.06-.18,1.52-.2s.97-.09,1.52-.2c1.47-.15,2.9-.31,4.28-.46,1.47-.15,2.91-.26,4.29-.32,1.2-.05,1.89-.17,2.07-.37.18-.19-.11-9.07-.16-10.28l-.15-3.47-.15-3.46c-.02-.37.02-.7.1-.98.18-.19.49-.34.95-.46l.42-.02.42-.02c2.03-.18,4.06-.31,6.09-.4s4.16-.22,6.09-.4c.92-.04,1.53.07,1.82.34.19.18.31.73.35,1.65.13.83.21,1.7.25,2.63-.06.84-.07,1.67-.03,2.5.05,1.3.57,10.26.86,10.52.19.18.93.24,2.23.18,1.75-.26,3.5-.43,5.26-.5,1.75-.17,3.54-.43,5.38-.78.64-.12,1.11-.05,1.4.22.29.18.44.59.47,1.23.27,1.93.49,3.87.66,5.8.17,1.94.3,3.87.39,5.82,0,.19.06.37.16.55.01.28.07.51.17.69.03.65-.09,1.16-.35,1.54-.17.28-.63.49-1.36.61l-3.87.44c-1.3.05-2.54.15-3.74.3-.92.13-1.8.22-2.63.25-.92.04-1.8.12-2.63.25-.27.11-.46.21-.54.3s-.13.28-.12.56c.62,5.99,1.06,11.99,1.32,18,.17,6.1.47,12.15.91,18.15.31,7.21.7,14.41,1.19,21.61.49,7.29.94,14.54,1.34,21.74.03.74-.09,1.16-.36,1.27-.18.19-.63.35-1.37.48-2.13.09-4.25.23-6.37.41l-6.65.28c-.65.03-1.07,0-1.25-.09-.19-.18-.35-.59-.47-1.23-.22-.82-.3-1.65-.24-2.49Z"/>
    <path class="cls-3" d="M575.49,258.83c.08,1.88.2,3.71.37,5.5.08,3.94.24,7.79.49,11.55.19,2.41.34,4.83.44,7.24l.18,4.3c.03.71-.04,1.17-.21,1.35-.17.19-.66.3-1.47.33l-5.89.52-6.04.26c-.99.04-1.57-.07-1.76-.33-.19-.17-.35-.75-.48-1.73-.31-3.03-.48-6.03-.52-8.99-.13-2.95-.3-5.95-.52-8.99-.21-2.86-.33-5.77-.37-8.73-.12-2.86-.29-5.72-.5-8.58-.23-3.22-.41-6.48-.55-9.79-.05-3.31-.19-6.63-.42-9.93-.29-2.68-.45-5.4-.48-8.18l-.35-8.32c-.36-4.29-.63-8.58-.82-12.88l-.21-4.97c-.04-.98-.13-1.96-.26-2.95l-.05-1.07c-.03-.62-.01-1.3.05-2.02-.02-.36.06-.63.23-.82.17-.19.44-.29.79-.3.17-.1.35-.15.53-.16l.67-.03,6.04-.26,5.91-.25c.54-.02.89,0,1.08.09.19.17.29.57.32,1.2.05,1.19.24,2.07.24,2.42,0,1.45.22,2.89.29,4.33.17,3.46.26,3.72.49,7.73.22,4-.11,3.95.37,8.73.31,3.13.49,6.25.53,9.39.13,3.13.31,6.26.53,9.39.22,3.22.41,6.44.54,9.66.05,3.23.23,6.44.54,9.66l.24,5.64Z"/>
    <path class="cls-4" d="M523.54,287.67c.05-.93.01-1.81-.11-2.63-.2-2.58-.36-5.12-.46-7.62-.02-2.59-.13-5.18-.33-7.76-.17-1.75-.29-3.6-.37-5.54l-.24-5.54c-.35-3.96-.61-7.94-.78-11.91-.26-3.88-.52-7.8-.78-11.77l-.24-5.68c-.08-1.85-.2-3.69-.37-5.54-.18-2.12-.32-4.2-.4-6.23l-.26-6.1c-.02-.46-.13-.78-.32-.96-.19-.08-.47-.12-.84-.1-.82.31-1.6.48-2.34.51-.84-.06-1.58-.07-2.22-.04l-3.87.44c-1.29.15-2.54.25-3.74.3-.55.02-.93-.05-1.12-.23-.28-.17-.49-.53-.6-1.09-.12-.64-.19-1.33-.23-2.07s-.11-1.48-.23-2.21l-.47-4.42c-.06-1.48-.17-2.96-.33-4.43-.02-.46.06-.79.24-.98.17-.29.49-.48.95-.6.55-.11,1.06-.18,1.52-.2s.97-.09,1.52-.2c1.47-.15,2.9-.31,4.28-.46,1.47-.15,2.91-.26,4.29-.32,1.2-.05,1.89-.17,2.07-.37.18-.19-.11-9.07-.16-10.28l-.15-3.47-.15-3.46c-.02-.37.02-.7.1-.98.18-.19.49-.34.95-.46l.42-.02.42-.02c2.03-.18,4.06-.31,6.09-.4s4.16-.22,6.09-.4c.92-.04,1.53.07,1.82.34.19.18.31.73.35,1.65.13.83.21,1.7.25,2.63-.06.84-.07,1.67-.03,2.5.05,1.3.57,10.26.86,10.52.19.18.93.24,2.23.18,1.75-.26,3.5-.43,5.26-.5,1.75-.17,3.54-.43,5.38-.78.64-.12,1.11-.05,1.4.22.29.18.44.59.47,1.23.27,1.93.49,3.87.66,5.8.17,1.94.3,3.87.39,5.82,0,.19.06.37.16.55.01.28.07.51.17.69.03.65-.09,1.16-.35,1.54-.17.28-.63.49-1.36.61l-3.87.44c-1.3.05-2.54.15-3.74.3-.92.13-1.8.22-2.63.25-.92.04-1.8.12-2.63.25-.27.11-.46.21-.54.3s-.13.28-.12.56c.62,5.99,1.06,11.99,1.32,18,.17,6.1.47,12.15.91,18.15.31,7.21.7,14.41,1.19,21.61.49,7.29.94,14.54,1.34,21.74.03.74-.09,1.16-.36,1.27-.18.19-.63.35-1.37.48-2.13.09-4.25.23-6.37.41l-6.65.28c-.65.03-1.07,0-1.25-.09-.19-.18-.35-.59-.47-1.23-.22-.82-.3-1.65-.24-2.49Z"/>
    <g>
      <path class="cls-2" d="M451.94,235.59l1.38,17.08h-.14s1.42,17.54,1.42,17.54l1.42,17.52c.1,1.29.03,2.09-.24,2.41-.18.21-.93.37-2.26.48l-5.86.47c-2,.16-4.01.27-6.02.34-1.05.09-1.73,0-2.04-.28-.3-.18-.45-.81-.44-1.91-.3-3.76-.65-7.47-1.04-11.13-.3-3.66-.55-7.33-.75-11-.54-7.83-1.12-15.66-1.76-23.48-.73-7.81-1.36-15.63-1.9-23.47l-.12-1.49c-.04-.49-.03-.94.04-1.35.05-.6.16-1.01.33-1.22.27-.22.59-.35.98-.38l3.29-.27,3.29-.27,3.43-.28,3.43-.28c.48-.04.87.03,1.17.2.3.18.53.61.68,1.29l.08,1.04c.13.39.21.78.24,1.18l1.39,17.23Z"/>
      <path class="cls-2" d="M433.18,199.11c-2.1-2.16-2.25-4.88-2.26-5.64-.02-.62-.05-3.83,2.42-6.32,2.13-2.15,4.76-2.4,5.77-2.47.87-.07,3.21-.22,5.57,1.23.43.26,3.5,2.22,4.08,6.12.12.82.44,3.77-1.55,6.32-2.21,2.83-5.61,3.04-6.8,3.11-1.18.07-4.68.28-7.23-2.35Z"/>
    </g>
    <path class="cls-2" d="M621.44,258.45c-3.61,3.04-8.1,5.49-13.46,7.33,1.27,1.82,2.73,3.2,4.38,4.15,1.92,1.11,3.85,1.58,5.8,1.41,2.03-.17,3.99-.98,5.89-2.42,3.7-3.05,6.28-8.17,7.76-15.38l15.95,3.28c-2.26,10.89-6.8,19.12-13.62,24.68-4.44,3.59-9.37,5.58-14.79,5.98-5.26.39-10.28-.8-15.07-3.57-6.71-3.88-11.52-9.97-14.42-18.26-1.75-5.11-2.56-11.2-2.43-18.26.13-6.89,1.17-13.48,3.12-19.77,1.93-6.63,4.6-11.8,8.01-15.51,3.41-3.72,7.14-6.08,11.18-7.11,6.06-1.53,11.68-.28,16.86,3.75,4.66,3.54,7.67,8.39,9.03,14.54,1.34,5.64.91,11.57-1.29,17.78-2.2,6.21-6.5,12.01-12.91,17.38ZM603.64,247.72c-.05.85-.06,1.66-.02,2.42,2.93-1.06,5.38-2.4,7.35-4.01,3.77-3.22,6.35-6.52,7.74-9.89,1.39-3.37,1.77-6.49,1.13-9.36-.53-2.36-1.58-4.14-3.16-5.35-1.05-.8-2.09-1.1-3.1-.89-2.94.81-5.46,4.69-7.54,11.67-1.5,4.74-2.3,9.88-2.41,15.41Z"/>
    <path class="cls-1" d="M366.89,205.05l20.34-3.35,13.84,83.92,30.87-5.33,3.51,20.31-51.02,8.82-.06-.32-.32.06-17.16-104.1Z"/>
  </g>
  <path class="cls-5" d="M495.98,376.48h.33v-8.46c0-1.73.32-2.81.98-3.25.65-.65,1.84-.97,3.58-.97,4.77,0,9.64-.11,14.63-.33h14.63c1.95,0,3.25.33,3.9.97.65.65.98,1.84.98,3.58v10.41c0,3.69.11,7.27.32,10.73,0,8.24.11,16.48.33,24.72,0,8.24.11,16.48.33,24.72v21.14c0,7.15.11,14.2.32,21.14,0,5.64.11,11.28.33,16.91v16.91c0,1.52.11,3.25.33,5.2.21,1.74.33,3.36.33,4.88,0,1.95-.33,3.14-.98,3.58-.65.65-1.84.98-3.58.98-4.99.22-9.97.33-14.96.33s-9.65.11-14.63.33c-1.95,0-3.25-.33-3.9-.98-.44-.65-.76-1.95-.98-3.9-.22-6.72-.33-13.55-.33-20.49v-20.49c0-1.3-.11-2.49-.32-3.58,0-1.08-.11-2.28-.33-3.58l-3.9,4.55c-1.3,1.3-2.6,2.71-3.9,4.23-5.42,5.85-11.27,11.06-17.56,15.61-6.5,4.34-13.88,7.27-22.11,8.78-9.54,1.95-18.65,1.84-27.32-.33-8.45-2.17-16.37-6.83-23.74-13.99-5.42-5.42-9.65-11.38-12.68-17.88-3.04-6.51-4.99-13.44-5.85-20.81-.22-3.25-.32-6.5-.32-9.76,0-7.81,1.08-15.17,3.25-22.11,3.25-9.76,8.34-19.08,15.29-27.97,5.85-7.59,12.79-13.55,20.81-17.89,8.02-4.33,16.8-7.26,26.34-8.78,8.67-1.52,17.24-1.84,25.69-.98,8.24.87,16.47,3.15,24.72,6.83ZM473.54,409.65c-3.69-1.3-7.59-2.06-11.71-2.28-2.6-.21-5.31-.11-8.13.33-2.6.44-5.2,1.09-7.81,1.95-10.19,3.69-18.21,11.17-24.06,22.44-5.64,11.06-5.42,21.68.65,31.87,4.55,8.02,10.73,10.85,18.54,8.46,7.81-2.38,14.09-6.18,18.86-11.38,4.12-4.33,8.13-8.99,12.03-13.98,3.69-4.98,7.04-9.97,10.08-14.96.86-1.52,1.95-3.14,3.25-4.88,1.3-1.95,2.16-3.79,2.6-5.53.65-1.73.65-3.03,0-3.9-.65-.65-1.85-1.52-3.58-2.6-3.25-2.38-6.83-4.23-10.73-5.53Z"/>
  <path class="cls-4" d="M659.84,387.92c.32,2.68.44,5.48.38,8.41-.08,1.06-.41,1.83-.98,2.31-.57.49-1.37.79-2.4.91-4.58.13-9.15.36-13.7.7-4.56.34-9.21.68-13.98,1.04-1.85.22-3.02.05-3.51-.52-.46-.36-.8-1.47-1.02-3.32l-.81-6.8-.85-7.11-1.66-13.9c-.56-4.74-1.85-9.39-3.86-13.95-1.43-3.17-4.25-6.7-8.47-10.59-4.22-3.88-7.78-3.04-10.67,2.53-.97,2.42-1.72,4.9-2.24,7.47-.3,2.75-.39,5.48-.28,8.18.43,5.38,1.68,10.56,3.73,15.54,2.24,4.75,4.78,9.46,7.64,14.13,7.06,11.9,14.71,23.52,22.95,34.86,8.01,11.16,14,23.71,17.96,37.65,2.42,8.07,3.4,16.31,2.95,24.72-.44,8.62-2.95,16.44-7.54,23.46-4.03,6.54-9.57,11.69-16.64,15.46-4.93,2.47-9.86,3.99-14.81,4.58-2.47.29-5.09.29-7.83,0-9.24-.36-17.34-3.57-24.33-9.63-7.17-5.83-12.11-13.07-14.81-21.73-.56-1.19-1.03-2.49-1.41-3.9-.56-1.19-1.03-2.49-1.41-3.91l-.18-1.54c-.05-.41,0-.83.16-1.27.15-.43.94-.84,2.36-1.22,4.59-1.8,9.1-3.38,13.53-4.75l13.84-4.78c1.42-.37,2.46-.4,3.13-.06.69.55,1.22,1.53,1.6,2.94,1.12,2.37,2.17,5.07,3.16,8.08.8,3.25,2.89,4.98,6.26,5.21,1.46.04,2.81-.12,4.02-.48,1.39-.58,2.43-1.54,3.1-2.88.99-2.2,1.57-4.36,1.74-6.47-.04-2.08-.29-4.14-.74-6.18-1.5-7.34-3.89-14.26-7.18-20.76-3.05-6.32-6.63-12.68-10.73-19.08-5.2-8.57-10.89-16.88-17.07-24.91-6-8.26-10.84-17.3-14.51-27.1-3.02-7.78-4.83-15.92-5.42-24.42-.8-8.47.1-16.62,2.72-24.45,2.59-8.03,6.98-15.03,13.16-21,6.16-6.16,13.41-10.16,21.76-11.99l4.02-.48c12.15-1.45,22.91,2.07,32.28,10.56,10.34,9.63,17.39,20.59,21.15,32.88,1.18,4.67,2.07,9.47,2.66,14.41.59,4.94,1.27,9.77,2.04,14.48.34,2.89.58,5.78.72,8.69Z"/>
  <path class="cls-2" d="M843.61,358.95c1.8-.22,3.5-.34,5.08-.34,8.35.23,16.13,1.81,23.35,4.74,7.44,2.94,14.21,7.22,20.3,12.86,8.12,7,14.43,15.01,18.95,24.03,4.52,8.8,7.56,18.5,9.14,29.1.9,5.64,1.35,11.17,1.35,16.58,0,4.29-.34,8.69-1.02,13.2-1.13,9.7-3.95,19.07-8.46,28.09-4.74,9.7-10.72,18.05-17.93,25.04-7.45,6.77-16.36,11.63-26.74,14.55-6.09,1.81-11.96,2.71-17.6,2.71-4.06,0-8.01-.45-11.85-1.36-9.47-2.03-18.39-6.2-26.73-12.52-8.8-6.77-15.68-14.55-20.64-23.35-4.97-8.8-8.58-18.5-10.83-29.1-.9-3.16-1.47-6.43-1.69-9.82-.45-3.38-.68-6.77-.68-10.15.22-11.05,1.91-21.66,5.08-31.81,3.38-10.16,8.68-19.63,15.9-28.43,5.19-6.31,11.05-11.39,17.6-15.23,6.54-3.83,13.98-6.43,22.33-7.78,1.58-.45,3.27-.78,5.08-1.01ZM879.15,462.51c1.57-5.41,2.37-11.17,2.37-17.26,0-2.25-.12-4.51-.34-6.77-.23-2.25-.68-4.4-1.36-6.43-1.13-5.41-2.93-10.49-5.41-15.23-2.7-4.74-6.42-8.91-11.16-12.52-4.29-3.38-9.03-5.08-14.22-5.08s-10.04,1.69-14.55,5.08c-2.25,1.58-4.18,3.5-5.75,5.75-1.8,2.03-3.27,4.29-4.4,6.77-2.93,6.09-4.85,12.19-5.75,18.27-.9,6.32-.79,12.75.34,19.29,1.36,5.64,3.27,10.94,5.75,15.91,2.48,4.97,5.98,9.36,10.49,13.2,3.61,2.71,7.33,4.4,11.17,5.08,3.83.9,7.89.56,12.19-1.02,2.48-.68,4.85-1.92,7.1-3.72,2.03-1.8,3.83-3.72,5.41-5.75,3.83-4.96,6.54-10.15,8.13-15.57Z"/>
  <path class="cls-1" d="M999.28,358.95c1.8-.22,3.5-.34,5.08-.34,8.34.23,16.13,1.81,23.35,4.74,7.44,2.94,14.22,7.22,20.3,12.86,8.12,7,14.44,15.01,18.95,24.03,4.51,8.8,7.56,18.5,9.14,29.1.9,5.64,1.35,11.17,1.35,16.58,0,4.29-.34,8.69-1.02,13.2-1.13,9.7-3.95,19.07-8.46,28.09-4.74,9.7-10.72,18.05-17.94,25.04-7.44,6.77-16.36,11.63-26.74,14.55-6.09,1.81-11.96,2.71-17.6,2.71-4.06,0-8.01-.45-11.85-1.36-9.47-2.03-18.39-6.2-26.73-12.52-8.8-6.77-15.68-14.55-20.64-23.35-4.97-8.8-8.58-18.5-10.83-29.1-.91-3.16-1.47-6.43-1.69-9.82-.46-3.38-.68-6.77-.68-10.15.22-11.05,1.91-21.66,5.08-31.81,3.39-10.16,8.68-19.63,15.91-28.43,5.19-6.31,11.05-11.39,17.6-15.23,6.54-3.83,13.99-6.43,22.33-7.78,1.58-.45,3.27-.78,5.08-1.01ZM1034.82,462.51c1.57-5.41,2.37-11.17,2.37-17.26,0-2.25-.12-4.51-.34-6.77-.23-2.25-.68-4.4-1.36-6.43-1.13-5.41-2.93-10.49-5.41-15.23-2.71-4.74-6.43-8.91-11.17-12.52-4.29-3.38-9.03-5.08-14.22-5.08s-10.04,1.69-14.55,5.08c-2.26,1.58-4.18,3.5-5.75,5.75-1.81,2.03-3.27,4.29-4.4,6.77-2.94,6.09-4.85,12.19-5.75,18.27-.9,6.32-.79,12.75.34,19.29,1.35,5.64,3.27,10.94,5.75,15.91,2.48,4.97,5.98,9.36,10.49,13.2,3.61,2.71,7.33,4.4,11.17,5.08,3.83.9,7.89.56,12.19-1.02,2.48-.68,4.85-1.92,7.11-3.72,2.03-1.8,3.83-3.72,5.41-5.75,3.83-4.96,6.54-10.15,8.12-15.57Z"/>
  <path class="cls-2" d="M1240.85,491.68l.17,2.81,1.2,19.39c.05.75,0,1.6-.12,2.55l.16,2.53c.07,1.12-.17,1.89-.7,2.3-.54.41-1.28.55-2.23.42-4.51.09-9.11.19-13.8.29-4.51.09-9.12.09-13.82.01-.95-.13-1.62-.37-2.02-.72s-.63-1-.68-1.93c-.22-3.56-.35-7.12-.38-10.7-.05-3.76-.28-7.41-.68-10.96-.45-4.11-.89-8.31-1.35-12.61-.45-4.3-1-8.59-1.64-12.87-.94-5.96-2.16-12-3.66-18.11-1.31-5.93-2.99-11.85-5.05-17.74-1.63-4.98-3.62-9.83-5.98-14.58-2.17-4.57-4.97-8.9-8.42-13.02-.61-.71-1.31-1.42-2.11-2.13l-2.39-2.11c-.99-.69-1.94-1.01-2.88-.95s-2.05.41-3.32,1.05c-1.8,1.24-3.4,2.75-4.79,4.53-1.58,1.79-2.88,3.66-3.88,5.6-3.61,5.49-6.54,11.31-8.79,17.47-2.26,5.97-4.23,12.11-5.91,18.42-1.66,6.69-3.02,13.45-4.1,20.28-1.08,6.84-2.06,13.76-2.94,20.78-.32,3.97-.64,7.85-.97,11.62-.13,3.96.01,7.8.43,11.54.29,1.67.49,3.35.6,5.04l.31,5.06c.29,1.67.17,2.71-.37,3.13-.54.41-1.56.66-3.05.75l-12.93.8c-4.31.27-8.61.63-12.91,1.08-1.32.08-2.17-.05-2.56-.4-.41-.54-.66-1.47-.74-2.78-1.69-27.16-3.57-54.32-5.63-81.46-2.25-27.13-4.31-54.27-6.19-81.42-.23-3.75.49-5.77,2.16-6.06,1.47-.47,3.62-.79,6.43-.96l9.83-.61c3.18-.2,6.46-.49,9.82-.89,1.69-.1,2.73.02,3.12.37.6.52,1.04,1.54,1.32,3.02l.1,1.69.1,1.69c.18,6.01.65,12.09,1.41,18.25.57,6.17.96,12.45,1.17,18.83,1.72-2.55,3.45-5.01,5.19-7.37,1.55-2.35,3.29-4.53,5.23-6.53,3.35-3.59,6.92-6.73,10.7-9.41,3.79-2.49,8-4.35,12.63-5.58,5.39-1.08,10.46-1.12,15.23-.1,4.75.83,9.38,2.71,13.89,5.63,5.28,3.25,9.65,7.02,13.11,11.32,3.47,4.49,6.68,9.27,9.64,14.35,4.01,7.08,7.29,14.5,9.84,22.24,2.55,7.74,4.72,15.5,6.52,23.29,1.04,4.64,1.98,9.19,2.83,13.65.66,4.66,1.42,9.22,2.26,13.68.72,5.6,1.26,11.11,1.59,16.55Z"/>
  <path class="cls-2" d="M252.91,349.33c-.44,5.47-.66,10.71-.66,15.74,0,5.46.21,10.82.66,16.06.44,5.25.98,10.61,1.64,16.07,1.09,10.93,2.73,21.75,4.92,32.45,2.4,10.93,5.46,21.53,9.18,31.8,1.75,5.03,3.71,9.83,5.9,14.42,2.18,4.81,4.8,9.29,7.87,13.44.66,1.1,1.42,2.08,2.29,2.95.66.87,1.42,1.64,2.29,2.29,1.75,1.1,3.39,1.53,4.92,1.31,1.75-.21,3.82-1.42,6.23-3.6,1.75-1.31,3.17-2.95,4.26-4.92l3.28-5.25c3.71-5.9,6.77-12.02,9.18-18.36,2.62-6.12,4.59-12.56,5.9-19.34l.65-1.31c0-.44.11-.76.33-.98.21-.87.66-1.42,1.31-1.64.65-.44,1.42-.54,2.29-.33l15.73,3.93c5.03,1.1,10.27,2.29,15.74,3.61,1.09.44,1.86.98,2.29,1.64.44.44.44,1.42,0,2.95-1.53,7.65-3.72,15.08-6.56,22.29-2.62,7.21-5.9,14.32-9.83,21.31-1.75,3.28-3.61,6.56-5.57,9.84-1.97,3.06-4.26,6.01-6.88,8.85-4.59,5.47-9.62,9.83-15.08,13.11-5.69,3.49-12.02,5.57-19.02,6.23-1.75.21-3.5.33-5.25.33-4.59,0-8.96-.66-13.11-1.97-5.9-1.75-11.37-4.7-16.39-8.85-5.25-4.37-9.51-9.18-12.79-14.42-3.5-5.46-6.67-11.14-9.51-17.05-4.37-9.4-8.09-19.12-11.14-29.18-3.06-10.05-5.69-20.22-7.87-30.49-1.1-5.9-2.08-11.8-2.95-17.7-.88-5.9-1.64-11.8-2.29-17.7-.44-3.49-.77-7.1-.98-10.82,0-3.71-.11-7.43-.33-11.14-.22-3.06-.32-6.01-.32-8.85v-2.62c0-3.71.11-7.43.32-11.14.44-10.05,1.31-20,2.62-29.83,1.53-9.83,4.15-19.45,7.87-28.85,1.97-4.59,4.26-8.96,6.88-13.11,2.62-4.15,5.9-7.87,9.84-11.15,5.02-4.37,10.38-7.87,16.06-10.49,5.46-2.62,11.48-4.26,18.03-4.92h5.25c5.25,0,10.38.77,15.41,2.29,6.33,2.19,12.56,5.14,18.68,8.85,6.34,3.93,11.91,8.52,16.72,13.77,4.59,5.47,8.74,11.26,12.46,17.37,3.49,6.34,6.66,12.79,9.51,19.34,2.62,6.56,4.7,13.22,6.23,20,.66,2.41,1.09,4.7,1.31,6.88.44,2.19.65,4.37.65,6.56.22.44.33.77.33.98,0,.66-.22,1.31-.65,1.97-.22.44-.98.66-2.3.66-5.24.87-10.38,1.75-15.41,2.62-5.03,1.1-10.16,2.19-15.41,3.28-1.1.22-1.97.11-2.62-.32-.66-.22-.98-.98-.98-2.3l-1.97-8.52c-.44-2.84-1.2-5.57-2.29-8.2-1.75-6.12-4.05-11.91-6.88-17.37-2.62-5.68-6.02-10.93-10.16-15.74-2.84-3.28-6.02-6.23-9.51-8.85-3.72-2.4-7.76-4.04-12.13-4.92-.65-.21-1.2-.33-1.64-.33-.66,0-1.31.11-1.97.33-4.15,1.1-7.65,2.95-10.49,5.57-2.84,2.62-5.03,5.9-6.56,9.83-1.75,4.15-3.06,8.41-3.94,12.79-.87,4.15-1.53,8.41-1.97,12.78-.66,5.47-1.2,10.82-1.64,16.07Z"/>
  <path class="cls-3" d="M707.53,516.01c.22-2.25.22-4.4,0-6.43-.23-6.31-.34-12.52-.34-18.61.22-6.31.22-12.63,0-18.95-.23-4.28-.34-8.79-.34-13.53v-13.53c-.45-9.7-.68-19.39-.68-29.09-.23-9.47-.45-19.06-.68-28.76v-13.87c0-4.51-.12-9.02-.34-13.53-.23-5.18-.34-10.26-.34-15.22v-14.88c0-1.13-.23-1.91-.68-2.37-.45-.22-1.13-.34-2.03-.34-2.03.67-3.95,1.01-5.75,1.01-2.03-.22-3.84-.34-5.41-.34l-9.47.68c-3.16.23-6.2.34-9.13.34-1.35,0-2.26-.22-2.71-.68-.68-.45-1.13-1.35-1.35-2.71-.23-1.57-.34-3.27-.34-5.07s-.12-3.61-.34-5.41l-.68-10.82c0-3.61-.12-7.22-.34-10.83,0-1.13.22-1.91.68-2.37.45-.68,1.24-1.13,2.37-1.35,1.35-.22,2.59-.34,3.72-.34s2.37-.11,3.72-.34c3.6-.22,7.1-.45,10.49-.67,3.61-.22,7.1-.34,10.49-.34,2.93,0,4.62-.22,5.07-.68.45-.45.68-22.11.68-25.05v-16.91c0-.9.11-1.69.34-2.37.45-.45,1.24-.79,2.37-1.02h2.03c4.96-.22,9.92-.34,14.89-.34s10.15-.11,14.88-.34c2.25,0,3.72.34,4.4,1.02.45.45.68,1.81.68,4.06.22,2.03.34,4.18.34,6.43-.23,2.03-.34,4.06-.34,6.09,0,3.16.34,25.05,1.01,25.73.45.46,2.25.68,5.41.68,4.28-.45,8.57-.68,12.85-.68,4.28-.22,8.68-.68,13.19-1.35,1.57-.22,2.71,0,3.38.67.68.46,1.02,1.47,1.02,3.05.45,4.74.79,9.47,1.01,14.21.22,4.74.34,9.47.34,14.21,0,.46.11.91.34,1.35,0,.67.11,1.24.34,1.69,0,1.58-.34,2.82-1.01,3.72-.45.67-1.58,1.13-3.38,1.35l-9.47.68c-3.16,0-6.21.11-9.13.34-2.26.22-4.4.34-6.43.34-2.26,0-4.4.11-6.43.34-.68.23-1.13.46-1.35.68s-.34.68-.34,1.35c.9,14.66,1.35,29.32,1.35,43.98-.23,14.88-.12,29.66.34,44.31,0,17.59.22,35.18.68,52.77.45,17.82.79,35.52,1.02,53.11,0,1.8-.34,2.82-1.02,3.05-.45.45-1.58.79-3.38,1.02-5.19,0-10.38.11-15.56.34h-16.24c-1.58,0-2.6-.12-3.05-.34-.45-.46-.79-1.47-1.01-3.05-.45-2.03-.57-4.06-.34-6.09Z"/>
  <path class="cls-6" d="M1194.82,314.42c-1.12,7.58-2.24,15.15-3.35,22.73-.43,1.38-.49,2.76-.19,4.14.06,1.38.47,2.67,1.23,3.86,1.26,2.15,3.73,4.21,6.2,4.77,2.66.61,5.64.47,8-1.05,2.11-1.36,4.39-3.6,4.77-6.2l3.35-22.73c.43-1.38.49-2.76.19-4.14-.06-1.38-.47-2.67-1.23-3.86-1.26-2.15-3.73-4.21-6.2-4.77-2.66-.61-5.64-.47-8,1.05-2.11,1.36-4.39,3.6-4.77,6.2h0Z"/>
  <path class="cls-6" d="M1240.74,357.95c11.44-19.93,23.92-39.25,37.39-57.87,3.19-4.41.9-11.76-3.72-14.2-5.38-2.84-10.79-.99-14.2,3.72-13.48,18.62-25.96,37.93-37.39,57.87-2.7,4.71-1.26,11.57,3.72,14.2s11.31,1.31,14.2-3.72h0Z"/>
  <path class="cls-6" d="M1255.54,391.03c.75-.62,1.51-1.23,2.29-1.83-.7.54-1.4,1.08-2.1,1.62,4.93-3.76,10.29-6.87,15.99-9.3-.83.35-1.65.7-2.48,1.05,3.31-1.38,6.7-2.53,10.17-3.43,5.26-1.36,8.96-7.49,7.25-12.77-1.75-5.42-7.13-8.71-12.77-7.25-12.24,3.17-23.33,9.18-33.02,17.23-1.93,1.61-3.04,4.92-3.04,7.34,0,2.55,1.13,5.59,3.04,7.34s4.57,3.16,7.34,3.04,5.12-1.19,7.34-3.04h0Z"/>
  <path class="cls-6" d="M175.09,242.8c8.27,9.01,17.42,16.98,27.13,24.38,2.5,1.9,7.16,2.1,10.03,1.31,3.02-.83,6.29-3.17,7.78-5.98,1.6-3.02,2.4-6.68,1.31-10.03-.44-1.04-.87-2.07-1.31-3.11-1.16-1.96-2.71-3.51-4.67-4.67-.36-.27-.71-.54-1.07-.82.88.68,1.76,1.36,2.63,2.04-8.4-6.5-16.24-13.7-23.43-21.53-2.2-2.39-6.01-3.81-9.2-3.81s-7.01,1.42-9.2,3.81-3.97,5.74-3.81,9.2c.16,3.54,1.4,6.57,3.81,9.2h0Z"/>
  <path class="cls-6" d="M197.13,280.33c-1.97-.21-4.29-.15-6.19-.72,1.94.27,2.18.3.71.09-.62-.09-1.24-.18-1.86-.27-.95-.14-1.89-.29-2.83-.44-4.82-.77-9.61-1.68-14.38-2.73-8.77-1.93-17.43-4.35-25.94-7.19-6.46-2.16-14.51,2.49-16.01,9.09-1.64,7.19,2.17,13.7,9.09,16.01,18.64,6.23,37.87,10.12,57.41,12.18,6.79.72,13.31-6.5,13.02-13.02-.34-7.67-5.74-12.25-13.02-13.02h0Z"/>
</svg>