<svg width="1000" height="1000" viewBox="0 0 1000 1000" fill="none" xmlns="http://www.w3.org/2000/svg">
<g clip-path="url(#clip0_4743_10417)">
<path d="M-26.0536 432.522C-26.5172 425.065 -26.6364 416.733 -26.1463 407.66C-25.6165 397.858 -24.4641 388.97 -23.06 381.155L2.7689 381.155C2.7689 381.155 2.79535 381.05 2.80859 380.997C-53.1541 379.513 -93.8182 378.904 -105.05 378.996C-107.7 379.023 -113.634 379.142 -117.594 383.182C-121.25 386.904 -121.462 392.149 -121.581 395.169C-121.806 400.838 -122.919 423.104 -122.932 428.76C-122.932 429.82 -122.853 432.933 -122.667 438.297C-107.633 438.019 -92.1757 437.476 -76.2147 436.549C-58.8895 435.542 -42.1602 434.164 -26.0403 432.522L-26.0536 432.522Z" fill="#72B7FC"/>
<path d="M2.78223 381.142C-5.81418 380.877 -14.3973 380.612 -22.9937 380.334C-24.4375 388.401 -25.6031 397.554 -26.1329 407.647C-26.6097 416.693 -26.4905 425.038 -26.0402 432.509C-42.1601 434.151 -58.8893 435.515 -76.2146 436.535C-92.1623 437.463 -107.633 438.006 -122.667 438.284C-122.482 444.072 -122.177 452.496 -121.78 463.901C-121.687 466.709 -121.448 471.491 -118.15 475.173C-115.17 478.497 -109.819 480.206 -105.223 480.166C-104.189 480.166 -103.408 480.06 -103.236 480.034C-98.8779 479.491 -72.4263 478.829 -3.86703 478.007C-4.39685 439.304 -3.33718 407.435 2.76905 381.129L2.78223 381.142Z" fill="#2E89E5"/>
<path d="M10.2655 664.095C7.36475 650.836 4.74212 636.504 2.64931 621.179C0.0266835 601.986 -1.36409 584.025 -1.97338 567.561L-22.3186 569.482C-24.0671 576.952 -25.5903 585.443 -26.4116 594.94C-27.7494 610.384 -26.9017 623.908 -25.4314 634.69C-38.4651 634.213 -53.4326 634.478 -69.8704 636.226C-89.8978 638.359 -107.435 642.213 -122.018 646.359C-121.846 651.525 -121.462 657.022 -120.548 662.956C-119.78 667.923 -118.31 671.83 -114.906 674.864C-114.906 674.864 -111.488 677.923 -105.713 678.705C-96.2292 679.99 -50.9822 674.281 10.2788 664.082L10.2655 664.095Z" fill="#2E89E5"/>
<path d="M115.33 803.691C114.177 808.737 112.747 813.665 111.051 818.46C113.118 813.744 114.522 808.79 115.33 803.691Z" fill="#E3562B"/>
<path d="M115.939 801.174C115.859 801.24 115.793 801.293 115.714 801.359C115.621 802.141 115.449 802.909 115.33 803.691C115.528 802.843 115.754 802.022 115.939 801.174Z" fill="#C14F34"/>
<path d="M5.25857 831.347C32.4783 858.567 74.5067 860.673 99.1303 836.063C104.323 830.871 108.243 824.897 111.065 818.473C112.773 813.678 114.191 808.75 115.343 803.704C115.462 802.922 115.634 802.154 115.727 801.373C81.9507 831.149 30.3061 825.586 8.94089 798.618C-5.56306 780.312 -5.68228 752.669 9.6694 730.124C6.43746 732.244 3.37772 734.681 0.556403 737.489C-24.0672 762.113 -21.9612 804.141 5.27183 831.361L5.25857 831.347Z" fill="#2E89E5"/>
<path d="M37.4726 319.007C39.8303 316.941 42.3205 315.007 44.8504 313.126C46.9962 311.537 49.2082 310.027 51.4599 308.583C48.8506 306.49 46.2544 304.106 43.7775 301.284C37.817 294.489 34.4526 287.575 32.5187 282.529C22.015 284.317 4.02745 285.403 -9.49632 275.018C-31.7225 257.971 -36.1201 214.393 -10.4633 173.107C-22.3579 182.14 -32.1728 195.24 -37.8154 211.254C-51.379 249.733 -35.7624 290.304 -2.92655 301.88C5.04731 304.689 13.3126 305.523 21.4454 304.636C25.2601 308.053 29.0616 311.457 32.8764 314.874C34.4129 316.252 35.9493 317.616 37.4726 318.994L37.4726 319.007Z" fill="#2E89E5"/>
<path d="M71.156 721.395C95.5014 705.17 119.847 688.93 144.192 672.705C122.43 658.651 66.626 618.424 37.8301 542.951C-5.68175 428.932 47.9895 327.577 56.4402 312.225C54.7845 311.152 53.1155 309.921 51.4598 308.583C49.1948 310.027 46.9961 311.537 44.8503 313.126C42.3204 314.994 39.8302 316.927 37.4725 319.007C18.9021 335.259 8.23939 355.525 2.30535 380.996C2.30535 381.049 2.2789 381.102 2.26566 381.155C-3.84058 407.461 -4.90025 439.33 -4.37042 478.034C-4.15849 493.505 -3.69491 510.062 -3.20481 527.811C-2.84718 540.672 -2.50285 552.739 -2.09224 564.144C-2.0525 565.296 -2.01271 566.435 -1.95973 567.574C-0.42324 607.708 2.19937 638.994 10.2792 664.095C10.7163 665.472 11.1799 666.837 11.6567 668.175C17.8821 685.672 27.0216 700.083 40.7043 712.402C44.082 715.435 47.6716 718.243 51.4333 720.879C56.5064 721.501 61.5927 722.694 66.5465 724.482C68.083 723.449 69.6327 722.429 71.1692 721.395L71.156 721.395Z" fill="#2E89E5"/>
<path d="M165.094 737.754C164.18 736.708 163.305 735.621 162.458 734.496C138.311 702.189 151.768 651.3 192.539 620.822C222.354 598.529 258.488 593.416 285.205 604.874C285.576 583.813 285.761 562.514 285.761 540.964C285.761 485.677 284.503 431.9 282.211 379.712C244.938 406.163 194.83 397.938 170.683 365.791C152.166 341.127 153.676 308.609 165.571 283.774C167.597 279.548 169.942 275.575 172.524 271.879C149.596 257.097 121.052 239.163 85.6067 217.36C83.1695 192.127 68.7451 170.511 46.1878 162.563C27.0081 155.808 6.21255 160.444 -10.4769 173.12C-36.1204 214.407 -31.7362 257.985 -9.51003 275.032C4.01374 285.403 22.0145 284.33 32.505 282.542C34.4256 287.589 37.8033 294.503 43.7638 301.298C46.2407 304.119 48.8369 306.503 51.4463 308.596C52.2543 309.245 53.0622 309.881 53.8835 310.464C54.7312 311.086 55.5789 311.682 56.4266 312.239C47.9759 327.59 -5.69536 428.946 37.8165 542.964C66.6124 618.437 122.416 658.664 144.179 672.718C118.297 689.977 92.4016 707.236 66.5197 724.495C61.5526 722.72 56.4795 721.528 51.4065 720.892C36.6508 719.078 21.8687 722.098 9.643 730.124C-5.70869 752.668 -5.58946 780.312 8.9145 798.617C30.2929 825.586 81.9376 831.149 115.701 801.373C116.257 796.776 116.35 792.101 115.926 787.398C133.211 776.603 146.828 766.841 156.365 759.622C163.08 754.549 168.458 750.231 173.544 746.046C173.69 746.032 173.822 746.006 173.968 745.979C170.763 743.542 167.756 740.853 165.08 737.754L165.094 737.754Z" fill="#72B7FC"/>
<path d="M310.822 674.122C342.598 635.803 349.459 591.748 353.605 564.833C356.294 547.401 362.334 496.591 342.148 436.695C334.479 413.939 323.313 380.732 295.046 351.088C272.675 327.617 244.303 310.252 214.036 299.324C202.897 291.708 189.187 282.622 172.511 271.879C169.942 275.588 167.584 279.549 165.557 283.774C153.676 308.609 152.153 341.141 170.67 365.791C194.817 397.938 244.925 406.15 282.198 379.712C284.503 431.9 285.748 485.677 285.748 540.964C285.748 562.515 285.563 583.814 285.192 604.874C258.462 593.403 222.341 598.516 192.525 620.822C151.769 651.3 138.298 702.19 162.445 734.496C163.279 735.622 164.166 736.694 165.08 737.754C167.756 740.84 170.776 743.542 173.968 745.98C224.898 739.582 276.397 715.607 310.795 674.122L310.822 674.122Z" fill="#72B7FC"/>
<path d="M264.197 455.94C261.23 456.444 258.157 456.722 254.992 456.722C230.871 456.722 211.321 441.251 211.321 422.177C211.321 403.103 230.871 387.633 254.992 387.633C257.773 387.633 260.475 387.858 263.111 388.255L262.634 358.598C232.819 352.982 203.572 361.419 187.611 381.831C175.412 397.421 174.088 416.005 173.717 422.19C173.372 428.071 172.829 448.258 183.849 466.086C198.857 490.392 230.818 503.055 264.886 499.081L264.197 455.953L264.197 455.94Z" fill="#FAF9F7"/>
<path d="M266.277 664.969L265.601 622.226C263.257 622.53 260.859 622.729 258.396 622.729C234.275 622.729 214.725 607.258 214.725 588.184C214.725 569.111 234.275 553.64 258.396 553.64C260.488 553.64 262.528 553.799 264.542 554.024L264.025 521.36C234.209 515.612 204.963 524.248 189.002 545.11C176.803 561.044 175.478 580.052 175.107 586.37C174.763 592.383 174.22 613.007 185.24 631.246C200.247 656.095 232.209 669.036 266.277 664.982L266.277 664.969Z" fill="#FAF9F7"/>
<path d="M211.321 422.164C211.321 441.251 230.871 456.708 254.992 456.708C258.157 456.708 261.23 456.43 264.197 455.927L263.111 388.229C260.475 387.831 257.773 387.606 254.992 387.606C230.871 387.606 211.321 403.077 211.321 422.151L211.321 422.164Z" fill="#202023"/>
<path d="M214.725 588.184C214.725 607.271 234.275 622.729 258.395 622.729C260.859 622.729 263.257 622.53 265.601 622.225L264.528 554.011C262.515 553.785 260.475 553.626 258.382 553.626C234.262 553.626 214.711 569.097 214.711 588.171L214.711 588.184L214.725 588.184Z" fill="#202023"/>
<path d="M175.386 509.625C190.817 507.121 200.314 476.815 196.976 453.41C192.34 420.906 163.253 403.898 158.63 401.289C155.358 404.865 129.847 433.595 138.152 467.927C143.172 488.657 160.656 512.022 175.386 509.625Z" fill="#05273A"/>
<path d="M176.882 511.095C192.525 515.135 200.274 547.891 192.512 572.528C183.757 600.344 157.106 611.867 152.298 613.854C150.086 611.258 125.211 581.085 136.284 547.957C142.973 527.943 162.59 507.413 176.869 511.095L176.882 511.095Z" fill="#05273A"/>
<path d="M429.887 506.353C429.887 506.062 429.914 505.784 429.927 505.492C429.728 505.691 429.543 505.903 429.331 506.102C429.516 506.181 429.702 506.274 429.887 506.353Z" fill="#05273A"/>
<path d="M409.396 791.094C414.787 792.114 420.337 792.432 425.953 791.889C430.125 791.491 434.178 790.63 438.073 789.399C414.032 777.65 397.435 753.026 397.435 724.469C397.435 702.084 407.608 682.083 423.582 668.824C414.416 660.294 408.76 648.187 408.76 634.981C405.025 635.233 401.25 635.246 397.409 634.862C360.586 631.127 333.763 598.251 337.499 561.428C339.75 539.189 352.678 520.658 370.639 510.234C357.526 500.883 349.632 484.988 351.38 467.822C352.559 456.218 357.95 446.086 365.831 438.708C351.645 426.283 343.459 407.448 345.499 387.262C345.976 382.573 346.996 378.069 348.466 373.791C344.4 364.744 342.082 354.757 342.082 344.2C342.082 334.571 344.002 325.405 347.42 317.007C314.147 310.517 289.007 281.244 289.007 246.064C289.007 228.579 295.219 212.539 305.537 200.035C300.981 198.856 296.265 198.167 291.404 198.167C264.171 198.167 240.766 217.652 230.448 245.547L222.302 244.898C213.136 244.898 204.129 246.792 195.718 250.911C186.896 255.23 178.935 262.647 172.511 271.879C189.188 282.621 202.897 291.708 214.036 299.324C219.109 301.152 224.103 303.218 229.044 305.417C237.892 333.471 259.694 353.962 285.761 356.572L285.761 683.116C280.86 683.911 275.92 685.394 271.125 687.739C254.939 695.646 244.965 710.521 244.157 725.33C221.851 736.072 197.863 742.986 173.982 745.979C185.863 755.013 201.003 759.622 217.281 759.662C220.46 777.756 229.587 793.439 244.382 803.267C263.019 815.651 286.728 816.128 308.954 806.883C320.041 817.453 333.75 824.036 348.85 824.87C372.785 826.208 394.839 812.83 409.383 791.094L409.396 791.094Z" fill="#05273A"/>
<path d="M489.942 693.235C489.439 688.003 488.591 682.917 487.452 677.99C492.327 677.01 497.095 675.407 501.678 673.155C537.892 655.406 549.111 603.973 526.712 558.263C524.302 553.349 521.586 548.713 518.632 544.342C543.362 524.38 555.813 486.101 547.574 446.059C540.077 409.594 517.374 381.288 490.26 370.029C502.619 355.618 510.288 335.551 510.288 313.325C510.288 298.039 506.658 283.787 500.367 271.667C494.618 260.581 486.631 251.322 477.174 244.739C467.332 237.904 455.888 233.97 443.676 233.97C440.139 233.97 436.655 234.302 433.265 234.937C421.436 212.83 400.694 198.154 377.063 198.154C360.745 198.154 345.804 205.161 334.227 216.764C326.094 208.618 316.279 202.803 305.524 200.022C295.192 212.526 288.993 228.553 288.993 246.05C288.993 281.231 314.12 310.504 347.406 316.994C343.989 325.392 342.068 334.558 342.068 344.187C342.068 354.744 344.386 364.744 348.453 373.778C346.983 378.056 345.963 382.56 345.486 387.249C343.433 407.435 351.632 426.27 365.818 438.695C357.923 446.086 352.532 456.219 351.367 467.808C349.632 484.975 357.513 500.883 370.626 510.221C352.665 520.632 339.737 539.176 337.485 561.415C333.75 598.238 360.572 631.114 397.395 634.849C401.237 635.233 405.025 635.22 408.747 634.968C408.747 648.174 414.389 660.28 423.569 668.811C407.594 682.069 397.422 702.07 397.422 724.455C397.422 753.013 414.019 777.637 438.059 789.385C471.677 778.776 494.234 738.615 489.929 693.222L489.929 693.235L489.942 693.235ZM429.331 506.102C429.542 505.903 429.728 505.691 429.927 505.492C429.927 505.784 429.9 506.062 429.887 506.353C429.701 506.274 429.516 506.181 429.331 506.102Z" fill="#063D63"/>
<path d="M264.184 519.864C264.171 518.552 265.019 517.36 266.237 517.002C282.635 512.247 291.894 515.188 297.298 518.777C320.174 533.944 318.253 589.88 294.172 662.863C288.861 678.97 265.986 675.115 265.787 658.055L264.184 519.864Z" fill="#063D63"/>
<path d="M264.635 499.823C264.674 501.081 265.588 502.194 266.807 502.472C283.404 506.313 292.517 503.095 297.762 499.412C319.922 483.875 315.458 430.323 288.066 361.406C282.026 346.187 259.35 350.889 259.933 367.261L264.635 499.823Z" fill="#063D63"/>
<g clip-path="url(#clip1_4743_10417)">
<path d="M-67.4136 326.153C-30.1181 318.878 16.1262 286.182 16.1262 286.182C20.1817 283.314 24.0772 280.539 27.8413 277.85C19.853 268.437 7.68385 257.361 -9.66444 250.167C-54.6086 231.515 -96.951 254.394 -107.724 261.028C-105.07 266.723 -100.924 273.915 -97.2325 286.037C-95.1201 292.996 -91.3917 307.403 -85.135 317.978C-84.0536 319.798 -81.7116 323.527 -77.3189 325.408C-75.9124 326.015 -72.607 327.158 -67.3976 326.143L-67.4136 326.153Z" fill="#F49B10"/>
<path d="M-9.66434 250.166C7.68395 257.361 19.8531 268.436 27.8414 277.849C37.728 270.788 46.5641 264.366 54.191 258.771C54.8596 256.932 55.5004 255.045 56.0942 253.132C26.7741 234.075 -2.53689 215.034 -31.857 195.977C-50.158 208.897 -65.07 215.479 -75.7512 219.145C-81.6783 221.173 -93.0561 224.611 -102.32 234.901C-105.383 238.306 -108.139 241.373 -109.646 246.088C-111.405 251.644 -110.229 255.684 -107.737 261.024C-96.9509 254.393 -54.6211 231.511 -9.67697 250.163L-9.66434 250.166Z" fill="#F28711"/>
<path d="M346.993 292.261C356.832 286.839 437.154 240.955 451.768 152.693C463.499 81.9025 426.05 25.5355 413.362 6.45222C376.867 -48.4806 328.963 -71.2304 237.182 -113.335C222.269 -120.175 208.402 -126.532 195.447 -132.4C191.851 -134.027 188.338 -135.605 184.871 -137.157C145.395 -154.859 114.813 -167.441 89.4834 -174.079C79.092 -176.796 69.5839 -178.517 60.6978 -179.178C55.3509 -179.568 50.2197 -179.602 45.2714 -179.208C11.3034 -156.334 -73.5251 -89.3914 -77.4307 12.7234C-79.8313 75.5994 -50.4615 123.246 -30.125 156.243C13.7833 227.478 73.6956 269.427 117.905 293.042C191.112 319.552 274.496 332.211 346.989 292.274L346.993 292.261Z" fill="#F49B10"/>
<path d="M-30.1084 156.235C-50.4448 123.238 -79.8147 75.5908 -77.4141 12.7148C-73.5085 -89.4 11.32 -156.342 45.288 -179.217C41.0065 -178.888 36.8465 -178.255 32.7795 -177.313C-2.54345 -169.172 -35.3454 -147.014 -62.5749 -117.079C-66.7163 -112.527 -70.7275 -107.805 -74.5925 -102.923C-96.7063 -75.0161 -114.252 -41.9445 -125.275 -7.77507C-126.208 -4.89667 -127.104 -2.00812 -127.937 0.897343C-128.149 1.6395 -128.349 2.38505 -128.561 3.12722C-136.809 32.5956 -140.076 62.5589 -137.12 90.4515C-135.145 109.129 -130.397 126.898 -122.459 142.961C-104.475 179.336 -74.9814 196.232 -16.7457 228.535C17.5357 247.553 65.0709 273.902 117.918 293.046C73.7087 269.431 13.7965 227.482 -30.1118 156.247L-30.1084 156.235Z" fill="#F28711"/>
<path d="M302.914 64.4589L326.139 49.2156L322.308 43.3677L299.724 58.187C300.951 60.2222 302.028 62.312 302.914 64.4589Z" fill="#1D1D1B"/>
<path d="M329.943 93.6282L331.31 86.762L306.13 81.7352C306.037 84.0531 305.74 86.3709 305.203 88.6784L329.934 93.6122L329.943 93.6282Z" fill="#1D1D1B"/>
<path d="M308.218 130.333L313.134 125.366L294.891 107.273C293.259 108.922 291.483 110.45 289.567 111.846L308.215 130.346L308.218 130.333Z" fill="#1D1D1B"/>
<path d="M289.567 111.847C291.483 110.45 293.259 108.922 294.891 107.274C299.62 102.5 303.111 96.6908 304.892 90.0441C305.013 89.5891 305.107 89.1401 305.216 88.6819C305.74 86.371 306.049 84.0566 306.143 81.7386C306.367 75.8531 305.231 69.9959 302.927 64.462C302.041 62.315 300.964 60.2252 299.737 58.19C292.537 46.2925 279.768 36.5463 263.752 32.2548C234.572 24.4362 205.673 37.6311 199.216 61.7285C192.76 85.8259 211.189 111.702 240.369 119.521C258.72 124.438 276.959 121.037 289.58 111.85L289.567 111.847Z" fill="#FAF9F7"/>
<path d="M303.846 170.835L301.827 164.132L276.787 171.711C277.468 173.966 277.961 176.265 278.248 178.576L303.846 170.835Z" fill="#1D1D1B"/>
<path d="M295.586 215.645L298.996 209.53L276.089 196.728C275.256 198.929 274.218 201.035 273.008 203.027L295.573 215.641L295.586 215.645Z" fill="#1D1D1B"/>
<path d="M252.494 220.271L265.602 244.247L271.736 240.893L258.707 217.073C256.738 218.266 254.662 219.348 252.491 220.283L252.494 220.271Z" fill="#1D1D1B"/>
<path d="M252.493 220.27C254.665 219.335 256.737 218.265 258.71 217.06C264.626 213.458 269.534 208.719 273.008 203.027C274.218 201.035 275.252 198.942 276.089 196.729C276.54 195.549 276.944 194.344 277.276 193.106C278.569 188.279 278.856 183.371 278.25 178.564C277.963 176.252 277.47 173.953 276.789 171.698C271.812 155.237 256.629 140.821 236.107 135.322C206.928 127.504 178.029 140.699 171.572 164.796C165.115 188.893 183.545 214.77 212.724 222.589C226.898 226.386 240.982 225.217 252.481 220.266L252.493 220.27Z" fill="#FAF9F7"/>
<path d="M212.743 74.9548C208.399 91.1666 219.157 108.135 236.771 112.855C254.385 117.574 272.186 108.258 276.53 92.0463C280.874 75.8344 270.116 58.8661 252.502 54.1464C234.888 49.4267 217.087 58.743 212.743 74.9548Z" fill="#202023"/>
<path d="M189.516 161.64C185.172 177.852 195.929 194.821 213.544 199.54C231.158 204.26 248.958 194.944 253.302 178.732C257.646 162.52 246.888 145.552 229.274 140.832C211.66 136.112 193.86 145.429 189.516 161.64Z" fill="#202023"/>
<path d="M143.103 174.368C150.879 173.364 158.586 165.908 159.116 158.831C150.303 162.944 141.614 162.809 139.367 158.374C137.494 154.663 140.708 149.077 146.813 144.619C139.601 146.898 133.201 146.199 131.328 142.487C128.995 137.867 134.54 130.346 143.73 125.685C144.465 125.313 145.203 124.982 145.937 124.664C141.448 121.024 134.234 121.19 129.253 123.119C120.226 126.619 116.519 136.718 116.103 143.622C115.159 159.161 129.821 176.078 143.09 174.365L143.103 174.368Z" fill="#91301A"/>
<path d="M131.34 142.491C133.214 146.202 139.614 146.902 146.826 144.622C148.206 143.61 149.731 142.665 151.385 141.794C148.391 132.974 150.58 128.996 146.578 125.202C146.372 125.011 146.163 124.833 145.95 124.668C145.216 124.986 144.478 125.316 143.742 125.688C134.553 130.35 129.007 137.87 131.34 142.491Z" fill="#FFFAF1"/>
<path d="M152.243 144.096C152.039 143.595 151.866 143.128 151.697 142.65C150.064 143.444 148.426 144.103 146.83 144.609C140.734 149.084 137.507 154.666 139.383 158.365C141.618 162.797 150.307 162.931 159.132 158.822C159.145 158.622 159.174 158.413 159.187 158.214C159.263 153.386 155.79 152.766 152.246 144.083L152.243 144.096Z" fill="#FFFAF1"/>
<path d="M151.385 141.793C149.735 142.651 148.206 143.61 146.826 144.621C148.423 144.114 150.06 143.456 151.693 142.661C151.581 142.374 151.485 142.077 151.385 141.793Z" fill="#F4D9D3"/>
<path d="M240.185 4.50063C239.584 6.74084 240.911 9.04289 243.149 9.64242C245.386 10.242 247.687 8.91194 248.287 6.67173C248.887 4.43152 247.56 2.12945 245.323 1.52992C243.085 0.930392 240.785 2.26042 240.185 4.50063Z" fill="#F26C11"/>
<path d="M223.307 5.59877C222.706 7.83898 224.034 10.141 226.271 10.7406C228.509 11.3401 230.809 10.0101 231.409 7.76987C232.009 5.52966 230.682 3.22761 228.445 2.62808C226.207 2.02855 223.907 3.35856 223.307 5.59877Z" fill="#F26C11"/>
<path d="M164.191 211.426C163.591 213.667 164.918 215.969 167.156 216.568C169.393 217.168 171.694 215.838 172.294 213.597C172.894 211.357 171.567 209.055 169.33 208.456C167.092 207.856 164.792 209.186 164.191 211.426Z" fill="#F26C11"/>
<path d="M170.879 232.207C170.279 234.447 171.606 236.749 173.844 237.349C176.081 237.948 178.382 236.618 178.982 234.378C179.582 232.138 178.255 229.836 176.018 229.236C173.78 228.636 171.48 229.967 170.879 232.207Z" fill="#F26C11"/>
<path d="M154 233.305C153.4 235.545 154.727 237.847 156.965 238.447C159.202 239.046 161.503 237.716 162.103 235.476C162.703 233.236 161.376 230.934 159.139 230.334C156.901 229.735 154.601 231.065 154 233.305Z" fill="#F26C11"/>
<path d="M313.027 385.752C322.795 383.223 330.579 378.861 336.293 374.799C336.282 367.32 337.728 357.279 343.797 347.502C354.101 330.909 373.707 321.549 394.568 322.953C384.274 326.791 352.612 340.099 340.976 371.205C340.959 371.268 340.942 371.332 340.913 371.392C342.226 380.777 345.762 392.519 355.211 399.005C379.454 415.659 421.976 383.524 426.409 380.107C465.572 349.861 471.993 300.807 473.398 284.606C479.298 300.299 491.11 310.385 502.589 309.953C516.008 309.445 524.238 294.734 527.141 289.553C530.565 283.441 532.526 276.978 533.449 270.454C534.184 238.986 520.542 216.546 505.174 214.229C502.313 213.801 495.554 213.48 486.298 220.155C487.171 218.818 498.005 202.719 512.776 203.779C514.369 203.894 515.894 204.208 517.338 204.676C530.428 195.656 538.7 186.036 543.496 179.547C549.454 171.5 566.303 148.751 561.611 123.4C561.57 123.2 561.533 122.986 561.495 122.773C555.313 123.785 547.904 125.741 540.108 129.543C519.226 139.726 508.886 156.607 505.154 163.517C516.254 127.946 522.349 111.309 525.946 103.036C525.952 103.011 525.959 102.985 525.966 102.96C528.522 96.047 531.92 85.8383 534.499 73.4869C534.674 72.3284 534.806 71.2803 534.916 70.4159C534.962 70.496 535.024 70.5668 535.071 70.6469C539.644 46.9658 540.951 16.1387 528.196 -14.2576C526.305 -18.7598 519.501 -34.9661 508.192 -47.5852C491.457 -49.6992 475.522 -48.3349 466.539 -38.4851C446.536 -16.5408 472.614 34.7611 471.996 34.9476C471.422 35.119 448.047 -7.94218 452.45 -44.4676C450.115 -48.0188 447.751 -51.415 445.379 -54.6781C420.106 -78.691 395.369 -86.836 385.356 -78.6437C383.571 -77.185 378.535 -72.1692 380.05 -56.8245C379.657 -57.0246 378.388 -57.6897 376.663 -58.7748C368.359 -63.0181 359.703 -65.852 351.052 -67.2897C316.38 -63.0907 293.813 -37.5811 295.257 -14.3462C296.002 -2.33645 303.049 7.05496 309.084 13.0059C316.367 13.0882 324.3 12.0042 332.496 9.63612C334.993 7.8402 352.299 -4.19468 372.145 1.55627C392.242 7.37484 406.668 29.0094 405.055 54.012C404.419 51.3361 396.657 20.7335 367.972 10.3655C352.825 4.89851 339.233 7.71672 333.143 9.44371C329.261 12.5209 324.919 17.1135 323.569 23.4151C319.62 41.9409 346.119 53.5514 372.971 93.129C384.664 110.374 394.205 129.644 397.433 136.427C397.752 137 398.076 137.561 398.395 138.134C409.809 158.339 414.696 177.106 417.004 189.697C418.349 197.045 381.6 121.607 341.164 122.731C326.57 123.128 307.134 133.116 299.686 150.46C296.243 158.463 296.188 166.141 296.693 171.274C303.972 188.989 319.663 204.841 336.048 212.753C352.562 220.739 368.637 220.117 377.566 219.001C350.263 241.942 328.464 246.408 312.705 245.449C308.845 245.214 305.093 244.628 301.475 243.943C298.816 243.772 295.884 243.759 292.697 244.043C285.655 244.675 268.592 246.211 263.198 257.808C262.498 259.313 261.46 262.177 261.612 266.403C283.074 272.384 300.972 275.203 313.04 276.662C305.478 276.965 294.194 276.975 280.629 275.196C272.485 274.138 269.424 273.196 264.01 272.246C264.84 272.834 265.572 273.383 266.185 273.872C265.575 273.573 264.46 272.99 263.195 272.109C262.948 272.07 262.702 272.031 262.442 271.989C247.696 269.622 222.525 265.573 212.409 276.067C203.825 284.981 205.637 304.874 216.596 325.363C225.526 332.673 236.283 337.004 245.422 339.548C255.111 337.769 265.6 335.325 276.65 331.947C292.799 327.011 306.747 321.146 318.354 315.439C310.878 322.591 292.761 337.903 265.011 343.076C247.662 356.834 248.031 365.451 248.623 368.495C251.577 383.67 285.943 392.783 313.053 385.759L313.027 385.752Z" fill="#E3562B"/>
<path d="M266.172 273.869C265.556 273.393 264.827 272.832 263.997 272.244C263.725 272.198 263.454 272.152 263.182 272.106C264.447 272.987 265.563 273.57 266.172 273.869Z" fill="#E3562B"/>
<path d="M553.214 106.375C542.967 97.8194 527.964 102.318 525.928 102.951C525.921 102.976 525.914 103.001 525.907 103.027C522.311 111.3 516.216 127.937 505.116 163.508C508.848 156.598 519.187 139.717 540.069 129.534C547.865 125.731 555.278 123.763 561.457 122.764C560.548 117.929 559.008 111.205 553.214 106.375Z" fill="#E3562B"/>
<path opacity="0.46" d="M553.214 106.375C542.967 97.8194 527.964 102.318 525.928 102.951C525.921 102.976 525.914 103.001 525.907 103.027C522.311 111.3 516.216 127.937 505.116 163.508C508.848 156.598 519.187 139.717 540.069 129.534C547.865 125.731 555.278 123.763 561.457 122.764C560.548 117.929 559.008 111.205 553.214 106.375Z" fill="#B53F24"/>
<path d="M534.461 73.4776C534.657 72.5416 534.845 71.5896 535.032 70.6376C534.986 70.5575 534.924 70.4867 534.878 70.4066C534.768 71.271 534.636 72.3192 534.461 73.4776Z" fill="#E3562B"/>
<path opacity="0.46" d="M534.461 73.4776C534.657 72.5416 534.845 71.5896 535.032 70.6376C534.986 70.5575 534.924 70.4867 534.878 70.4066C534.768 71.271 534.636 72.3192 534.461 73.4776Z" fill="#B53F24"/>
<path d="M471.961 34.9257C472.579 34.7392 446.502 -16.5627 466.504 -38.5069C475.487 -48.3567 491.423 -49.721 508.157 -47.6071C501.775 -54.7347 493.95 -60.7184 484.752 -62.7902C480.707 -63.6979 471.92 -65.6868 463.778 -60.7445C455.601 -55.7711 453.176 -46.8726 452.561 -44.2745C452.511 -44.342 452.462 -44.4094 452.416 -44.4895C448 -7.96745 471.391 35.0845 471.961 34.9257Z" fill="#E3562B"/>
<path opacity="0.46" d="M471.961 34.9257C472.579 34.7392 446.502 -16.5627 466.504 -38.5069C475.487 -48.3567 491.423 -49.721 508.157 -47.6071C501.775 -54.7347 493.95 -60.7184 484.752 -62.7902C480.707 -63.6979 471.92 -65.6868 463.778 -60.7445C455.601 -55.7711 453.176 -46.8726 452.561 -44.2745C452.511 -44.342 452.462 -44.4094 452.416 -44.4895C448 -7.96745 471.391 35.0845 471.961 34.9257Z" fill="#B53F24"/>
<path opacity="0.46" d="M332.461 9.61331C332.669 9.54692 332.914 9.49068 333.137 9.41504C332.917 9.47804 332.685 9.53766 332.465 9.60066L332.461 9.61331Z" fill="#B53F24"/>
<path d="M367.95 10.3463C396.636 20.7143 404.398 51.3168 405.033 53.9927C406.647 28.9902 392.221 7.35557 372.123 1.53699C352.278 -4.21395 334.971 7.82091 332.474 9.61684C332.694 9.55384 332.927 9.49424 333.146 9.43124C339.233 7.71689 352.829 4.88604 367.975 10.353L367.95 10.3463Z" fill="#E3562B"/>
<path opacity="0.46" d="M367.95 10.3463C396.636 20.7143 404.398 51.3168 405.033 53.9927C406.647 28.9902 392.221 7.35557 372.123 1.53699C352.278 -4.21395 334.971 7.82091 332.474 9.61684C332.694 9.55384 332.927 9.49424 333.146 9.43124C339.233 7.71689 352.829 4.88604 367.975 10.353L367.95 10.3463Z" fill="#B53F24"/>
<path d="M295.209 -14.3712C293.765 -37.6061 316.317 -63.1065 351.005 -67.3147C331.077 -70.6364 311.209 -66.5607 295.956 -55.0726C279.304 -42.5509 273.31 -25.1283 271.235 -17.5853C271.11 -10.1021 273.22 -5.20291 275.001 -2.26056C280.835 7.32021 293.457 12.8153 309.049 12.9842C303.002 7.02992 295.967 -2.3581 295.222 -14.3678L295.209 -14.3712Z" fill="#E3562B"/>
<path opacity="0.46" d="M295.209 -14.3712C293.765 -37.6061 316.317 -63.1065 351.005 -67.3147C331.077 -70.6364 311.209 -66.5607 295.956 -55.0726C279.304 -42.5509 273.31 -25.1283 271.235 -17.5853C271.11 -10.1021 273.22 -5.20291 275.001 -2.26056C280.835 7.32021 293.457 12.8153 309.049 12.9842C303.002 7.02992 295.967 -2.3581 295.222 -14.3678L295.209 -14.3712Z" fill="#B53F24"/>
<path d="M299.677 150.446C307.121 133.114 326.557 123.126 341.155 122.717C381.591 121.593 418.34 197.031 416.994 189.682C414.687 177.091 409.8 158.324 398.386 138.12C398.066 137.546 397.743 136.986 397.423 136.412C398.194 138.028 398.613 138.939 398.613 138.939C398.613 138.939 397.356 136.665 397.042 136.12C384.626 114.605 361.529 102.565 338.565 105.323C321.372 107.394 302.587 117.976 295.432 135.643C290.756 147.189 291.912 159.633 296.696 171.263C296.195 166.117 296.247 158.452 299.69 150.449L299.677 150.446Z" fill="#E3562B"/>
<path opacity="0.46" d="M299.677 150.446C307.121 133.114 326.557 123.126 341.155 122.717C381.591 121.593 418.34 197.031 416.994 189.682C414.687 177.091 409.8 158.324 398.386 138.12C398.066 137.546 397.743 136.986 397.423 136.412C398.194 138.028 398.613 138.939 398.613 138.939C398.613 138.939 397.356 136.665 397.042 136.12C384.626 114.605 361.529 102.565 338.565 105.323C321.372 107.394 302.587 117.976 295.432 135.643C290.756 147.189 291.912 159.633 296.696 171.263C296.195 166.117 296.247 158.452 299.69 150.449L299.677 150.446Z" fill="#B53F24"/>
<path d="M512.751 203.773C497.976 202.726 487.142 218.825 486.273 220.15C495.529 213.474 502.287 213.795 505.148 214.223C520.529 216.543 534.171 238.984 533.424 270.448C537.576 241.169 520.5 210.644 517.13 204.798C517.194 204.761 517.248 204.708 517.312 204.671C515.869 204.202 514.356 203.892 512.751 203.773Z" fill="#E3562B"/>
<path opacity="0.46" d="M512.751 203.773C497.976 202.726 487.142 218.825 486.273 220.15C495.529 213.474 502.287 213.795 505.148 214.223C520.529 216.543 534.171 238.984 533.424 270.448C537.576 241.169 520.5 210.644 517.13 204.798C517.194 204.761 517.248 204.708 517.312 204.671C515.869 204.202 514.356 203.892 512.751 203.773Z" fill="#B53F24"/>
<path d="M394.555 322.95C373.694 321.545 354.088 330.905 343.785 347.498C337.715 357.276 336.269 367.317 336.281 374.796C337.988 373.574 339.523 372.387 340.864 371.27C340.867 371.312 340.882 371.356 340.888 371.385C340.905 371.322 340.922 371.259 340.951 371.199C352.599 340.095 384.248 326.784 394.543 322.947L394.555 322.95Z" fill="#E3562B"/>
<path opacity="0.46" d="M394.555 322.95C373.694 321.545 354.088 330.905 343.785 347.498C337.715 357.276 336.269 367.317 336.281 374.796C337.988 373.574 339.523 372.387 340.864 371.27C340.867 371.312 340.882 371.356 340.888 371.385C340.905 371.322 340.922 371.259 340.951 371.199C352.599 340.095 384.248 326.784 394.543 322.947L394.555 322.95Z" fill="#B53F24"/>
<path d="M318.329 315.432C306.735 321.143 292.783 327.02 276.625 331.941C265.575 335.318 255.098 337.766 245.397 339.541C255.445 342.328 263.523 342.976 264.973 343.067C292.724 337.893 310.844 322.569 318.316 315.429L318.329 315.432Z" fill="#E3562B"/>
<path opacity="0.46" d="M318.329 315.432C306.735 321.143 292.783 327.02 276.625 331.941C265.575 335.318 255.098 337.766 245.397 339.541C255.445 342.328 263.523 342.976 264.973 343.067C292.724 337.893 310.844 322.569 318.316 315.429L318.329 315.432Z" fill="#B53F24"/>
<path d="M263.169 272.104C263.441 272.15 263.713 272.195 263.985 272.241C263.008 271.546 261.873 270.781 260.618 270.012C261.463 270.848 262.348 271.532 263.169 272.104Z" fill="#E3562B"/>
<path opacity="0.46" d="M263.169 272.104C263.441 272.15 263.713 272.195 263.985 272.241C263.008 271.546 261.873 270.781 260.618 270.012C261.463 270.848 262.348 271.532 263.169 272.104Z" fill="#B53F24"/>
<path d="M212.396 276.065C222.513 265.571 247.671 269.617 262.43 271.987C262.689 272.029 262.936 272.068 263.182 272.107C262.362 271.535 261.492 270.842 260.632 270.015C254.393 266.136 244.825 261.662 232.664 261.004C225.118 260.594 211.304 259.845 203.364 268.729C191.653 281.843 201.907 305.719 202.701 307.502C205.985 314.883 210.916 320.714 216.583 325.361C205.637 304.876 203.812 284.979 212.396 276.065Z" fill="#E3562B"/>
<path opacity="0.46" d="M212.396 276.065C222.513 265.571 247.671 269.617 262.43 271.987C262.689 272.029 262.936 272.068 263.182 272.107C262.362 271.535 261.492 270.842 260.632 270.015C254.393 266.136 244.825 261.662 232.664 261.004C225.118 260.594 211.304 259.845 203.364 268.729C191.653 281.843 201.907 305.719 202.701 307.502C205.985 314.883 210.916 320.714 216.583 325.361C205.637 304.876 203.812 284.979 212.396 276.065Z" fill="#B53F24"/>
<path d="M265.31 244.424C260.983 247.802 254.654 255.519 256.702 263.476C257.412 266.226 258.96 268.374 260.631 270.014C261.882 270.796 263.02 271.548 263.997 272.243C269.411 273.192 272.476 274.122 280.616 275.193C294.184 276.959 305.465 276.962 313.027 276.658C300.972 275.202 283.061 272.38 261.6 266.4C261.434 262.17 262.485 259.31 263.186 257.805C268.579 246.207 285.643 244.671 292.684 244.039C295.871 243.755 298.803 243.769 301.462 243.94C287.292 241.24 275.022 236.855 265.307 244.437L265.31 244.424Z" fill="#E3562B"/>
<path opacity="0.46" d="M265.31 244.424C260.983 247.802 254.654 255.519 256.702 263.476C257.412 266.226 258.96 268.374 260.631 270.014C261.882 270.796 263.02 271.548 263.997 272.243C269.411 273.192 272.476 274.122 280.616 275.193C294.184 276.959 305.465 276.962 313.027 276.658C300.972 275.202 283.061 272.38 261.6 266.4C261.434 262.17 262.485 259.31 263.186 257.805C268.579 246.207 285.643 244.671 292.684 244.039C295.871 243.755 298.803 243.769 301.462 243.94C287.292 241.24 275.022 236.855 265.307 244.437L265.31 244.424Z" fill="#B53F24"/>
<rect x="274.281" y="59.9824" width="14.1855" height="26.5654" rx="7.09274" transform="rotate(105 274.281 59.9824)" fill="#FAF9F7"/>
<rect x="251.053" y="146.668" width="14.1855" height="26.5654" rx="7.09274" transform="rotate(105 251.053 146.668)" fill="#FAF9F7"/>
</g>
<g clip-path="url(#clip2_4743_10417)">
<path opacity="0.1" d="M-122.189 1084.61C-38.5561 1229.47 60.295 1328.97 98.6013 1306.85C136.908 1284.73 100.163 1149.38 16.5306 1004.52C-67.1022 859.663 -165.953 760.163 -204.26 782.279C-242.566 804.395 -205.822 939.753 -122.189 1084.61Z" fill="#063D63"/>
<path d="M314.478 952.621C332.916 984.555 373.759 995.491 405.705 977.048C437.651 958.604 448.601 917.764 430.164 885.83C411.727 853.895 370.883 842.959 338.937 861.403C306.992 879.847 296.041 920.686 314.478 952.621Z" fill="url(#paint0_radial_4743_10417)"/>
<path d="M199.595 753.637C218.032 785.572 258.876 796.508 290.822 778.064C322.767 759.62 333.718 718.781 315.281 686.846C296.843 654.912 256 643.976 224.054 662.42C192.108 680.863 181.158 721.703 199.595 753.637Z" fill="url(#paint1_radial_4743_10417)"/>
<path d="M-65.2241 820.037C-61.6518 798.221 -53.2695 781.795 -47.1167 771.822C-51.6755 774.454 -55.9489 777.069 -59.9319 779.59C-61.2657 780.433 -62.581 781.267 -63.8304 782.086C-74.9631 789.572 -82.6705 795.744 -87.882 800.868L-87.919 800.889C-87.919 800.889 -91.6143 804.548 -96.3062 809.422C-83.3169 836.608 -70.2985 863.803 -57.3092 890.989C-62.0763 878.982 -70.5602 852.736 -65.2056 820.026L-65.2241 820.037Z" fill="#26917D"/>
<path d="M-42.1963 769.006L-42.1594 768.984C-40.609 768.089 -38.9898 767.228 -37.3812 766.349C-37.2336 766.263 -37.1044 766.189 -36.9567 766.104C-35.4958 765.309 -33.9873 764.512 -32.4789 763.715C-32.1836 763.545 -31.8882 763.374 -31.5531 763.23C-29.7387 762.281 -27.8952 761.339 -26.0147 760.377C40.1358 727.006 99.7905 719.723 99.6612 719.158C99.556 718.678 57.8826 721.557 0.37445 739.975C-39.1477 752.633 -54.8272 762.473 -73.4679 754.269C-88.8832 747.474 -96.2058 732.489 -108.627 707.139C-114.957 694.213 -120.845 682.14 -123.514 668.354C-124.416 678.002 -121.684 693.005 -117.485 716.263C-112.356 744.667 -109.675 758.986 -104.037 765.128C-93.0271 777.123 -73.691 778.604 -55.0712 776.414C-58.208 778.398 -61.1206 780.301 -63.8379 782.116C-62.5701 781.285 -61.2732 780.463 -59.9393 779.619C-54.5487 776.211 -48.622 772.666 -42.2041 769.035L-42.1963 769.006Z" fill="#26917D"/>
<path d="M311.757 690.332C294.649 660.702 256.75 650.554 227.109 667.667C197.467 684.78 187.306 722.676 204.413 752.307C211.987 765.425 223.657 774.726 236.862 779.526C229.565 776.137 223.373 770.782 219.24 763.624C207.31 742.96 216.832 715.125 240.531 701.443C250.11 695.912 260.527 693.539 270.325 694.056C271.011 693.242 271.737 692.454 272.54 691.67C278.617 685.702 285.554 682.927 288.055 685.468C290.039 687.496 288.605 692.26 284.878 697.142C293.274 700.388 300.406 706.135 305.018 714.124C316.949 734.788 307.426 762.623 283.728 776.305C278.468 779.342 272.968 781.41 267.444 782.582C274.842 781.46 282.169 778.976 289.054 775.001C318.695 757.888 328.856 719.992 311.749 690.361L311.757 690.332Z" fill="#DAF2E6"/>
<path d="M337.201 868.924C349.18 862.008 362.496 860.052 374.279 862.474C376.264 860.541 378.355 858.964 380.338 857.795C367.3 856.098 353.618 858.486 341.345 865.573C337.524 867.778 334.012 870.347 330.85 873.182C332.839 871.64 334.95 870.224 337.201 868.924Z" fill="#DAF2E6"/>
<path d="M387.079 867.212C393.067 870.593 398.139 875.414 401.697 881.576C413.628 902.24 404.105 930.075 380.407 943.757C356.708 957.44 327.841 951.769 315.911 931.105C312.46 925.127 310.806 918.555 310.769 911.884C309.228 924.73 311.683 938.146 318.639 950.194C335.746 979.825 373.646 989.973 403.287 972.859C432.928 955.746 443.09 917.85 425.982 888.219C417.812 874.068 404.877 864.366 390.386 859.94C390.099 862 388.915 864.553 387.05 867.204L387.079 867.212Z" fill="#DAF2E6"/>
<path d="M305.008 714.106C300.395 706.117 293.255 700.399 284.868 697.124C283.911 698.365 282.804 699.644 281.558 700.855C275.481 706.823 268.544 709.599 266.043 707.057C263.887 704.858 265.783 699.36 270.314 694.038C260.498 693.531 250.081 695.904 240.52 701.424C216.84 715.096 207.299 742.941 219.23 763.605C223.373 770.782 229.565 776.137 236.851 779.507C245.914 783.696 256.703 784.823 267.441 782.535C272.965 781.363 278.465 779.294 283.725 776.257C307.405 762.586 316.946 734.741 305.016 714.077L305.008 714.106Z" fill="black"/>
<path d="M401.697 881.576C398.139 875.414 393.068 870.593 387.079 867.212C385.979 868.758 384.651 870.336 383.108 871.842C377.031 877.81 370.094 880.586 367.593 878.044C365.092 875.503 368.001 868.608 374.079 862.639C374.142 862.578 374.224 862.506 374.287 862.445C362.504 860.023 349.188 861.979 337.209 868.895C334.958 870.195 332.847 871.611 330.858 873.153C317.954 883.112 310.711 897.675 310.788 911.874C310.824 918.544 312.478 925.116 315.93 931.094C327.86 951.758 356.727 957.429 380.425 943.747C404.123 930.064 413.646 902.23 401.716 881.566L401.697 881.576Z" fill="black"/>
<path d="M383.108 871.842C384.65 870.336 385.978 868.758 387.079 867.212C388.955 864.579 390.128 862.007 390.416 859.947C387.128 858.942 383.753 858.21 380.346 857.766C378.353 858.917 376.282 860.53 374.287 862.445C374.224 862.506 374.161 862.567 374.079 862.639C368.001 868.608 365.092 875.503 367.593 878.044C370.094 880.586 377.031 877.81 383.108 871.842Z" fill="white"/>
<path d="M281.558 700.855C282.804 699.644 283.892 698.376 284.868 697.124C288.595 692.241 290.028 687.478 288.045 685.449C285.544 682.908 278.607 685.683 272.529 691.652C271.727 692.435 270.982 693.234 270.314 694.038C265.801 699.349 263.877 704.839 266.043 707.057C268.544 709.598 275.481 706.823 281.558 700.855Z" fill="white"/>
<path d="M349.083 722.632C358.024 723.029 366.843 711.197 368.293 700.963C371.939 675.438 330.728 652.565 321.701 659.179C311.431 666.708 330.281 721.778 349.083 722.632Z" fill="#1D423B"/>
<path d="M455.588 891.077C465.829 886.566 466.626 839.44 442.698 829.836C433.121 825.992 418.453 827.696 414.327 835.638C405.666 852.348 443.932 896.207 455.588 891.077Z" fill="#1D423B"/>
<path d="M-28.5269 958.701C-6.92805 1021.09 11.2872 1061.89 26.4687 1088.69C11.3056 1061.88 -6.85919 1021.12 -28.3991 958.922C-28.4474 958.753 -28.4155 958.809 -28.2983 959.012C-28.5433 958.587 -28.6072 958.477 -28.5269 958.701Z" fill="#26917D"/>
<path d="M70.4915 1144.65C70.2358 1144.21 69.922 1143.75 69.6187 1143.31C69.5016 1143.11 69.3474 1142.93 69.2012 1142.72C68.9725 1142.41 68.7439 1142.1 68.5046 1141.77C68.3796 1141.59 68.244 1141.4 68.1005 1141.24C67.7498 1140.8 67.399 1140.36 67.0298 1139.94C66.865 1139.74 66.6818 1139.55 66.5171 1139.35C66.27 1139.05 66.0151 1138.78 65.7495 1138.49C65.5848 1138.29 65.4122 1138.12 65.2475 1137.92C64.8598 1137.5 64.4828 1137.1 64.1057 1136.71C63.9225 1136.52 63.7499 1136.35 63.5667 1136.16C63.3118 1135.89 63.0385 1135.62 62.7836 1135.35C62.611 1135.18 62.4385 1135.01 62.2766 1134.86C61.8917 1134.49 61.536 1134.13 61.1618 1133.78C61.0106 1133.65 60.8778 1133.5 60.7159 1133.35C60.4532 1133.11 60.1905 1132.87 59.9462 1132.61C59.795 1132.48 59.6728 1132.35 59.5216 1132.22C59.1872 1131.9 58.8449 1131.6 58.5425 1131.33C58.4417 1131.24 58.3408 1131.15 58.2399 1131.06C57.9879 1130.84 57.7358 1130.62 57.5236 1130.42C57.1813 1130.13 56.8788 1129.86 56.6452 1129.62C56.0906 1129.13 55.5439 1128.61 54.9865 1128.07C54.814 1127.9 54.6309 1127.71 54.4398 1127.55C54.055 1127.18 53.6595 1126.8 53.2718 1126.38C53.0488 1126.16 52.8443 1125.94 52.6213 1125.72C52.2443 1125.33 51.8673 1124.93 51.4902 1124.53C51.275 1124.29 51.0414 1124.05 50.8263 1123.81C50.4067 1123.34 49.9579 1122.86 49.5276 1122.37C49.3628 1122.17 49.1797 1121.98 48.9965 1121.79C48.4014 1121.1 47.8064 1120.41 47.1901 1119.68C46.9749 1119.44 46.7675 1119.16 46.5418 1118.9C46.1299 1118.4 45.7181 1117.9 45.314 1117.37C45.0456 1117.03 44.7666 1116.68 44.4875 1116.32C44.1154 1115.85 43.7433 1115.38 43.379 1114.87C43.0893 1114.5 42.7996 1114.12 42.5177 1113.72C42.1243 1113.21 41.7387 1112.67 41.3531 1112.13C41.0819 1111.75 40.7921 1111.37 40.5102 1110.97C39.9783 1110.22 39.4359 1109.45 38.8827 1108.66C38.5475 1108.17 38.2123 1107.67 37.848 1107.17C37.3986 1106.52 36.9569 1105.84 36.4861 1105.15C36.1615 1104.67 35.8448 1104.17 35.5203 1103.69C35.1318 1103.1 34.7328 1102.5 34.3522 1101.88C34.0248 1101.36 33.6683 1100.82 33.3303 1100.28C32.939 1099.65 32.5477 1099.01 32.1564 1098.38C31.8369 1097.82 31.4697 1097.27 31.1395 1096.7C30.7135 1095.96 30.2583 1095.22 29.8031 1094.47C29.5048 1093.95 29.2172 1093.45 28.9005 1092.95C28.1655 1091.68 27.3986 1090.35 26.6316 1089.02C26.5784 1088.93 26.5144 1088.82 26.4612 1088.72C11.269 1061.9 -6.93557 1021.12 -28.5344 958.73C-28.6147 958.506 -28.5217 958.624 -28.3058 959.041C-28.3058 959.041 -28.178 959.262 -28.0927 959.41C-27.5921 960.277 -26.6298 962.157 -25.1988 964.849C-25.1455 964.941 -25.0923 965.033 -25.0284 965.144C-24.826 965.494 -24.6315 965.874 -24.4262 966.272C-24.309 966.475 -24.1811 966.696 -24.0718 966.929C-23.88 967.261 -23.7068 967.603 -23.5229 967.965C-23.3631 968.241 -23.1927 968.537 -23.0407 968.842C-22.8702 969.138 -22.6998 969.433 -22.5372 969.757C-22.3135 970.145 -22.0976 970.561 -21.8817 970.978C-21.7326 971.236 -21.5941 971.476 -21.4634 971.745C-21.2078 972.188 -20.96 972.66 -20.7121 973.131C-20.563 973.39 -20.4032 973.666 -20.2434 973.943C-19.9452 974.46 -19.6654 974.987 -19.3749 975.533C-19.2471 975.754 -19.1192 975.976 -18.9914 976.197C-18.6505 976.787 -18.299 977.396 -17.9553 978.034C-17.8381 978.237 -17.7209 978.44 -17.6038 978.643C-17.199 979.344 -16.7942 980.045 -16.3972 980.775C-16.3227 980.905 -16.2375 981.052 -16.1629 981.181C-15.7048 981.975 -15.2362 982.786 -14.7675 983.598C-14.7142 983.691 -14.6609 983.783 -14.6077 983.875C-14.0857 984.779 -13.5531 985.702 -12.9992 986.661L-12.9779 986.698C11.4602 1028.9 62.2917 1106.41 120.046 1129.25C132.22 1134.06 154.298 1141.95 181.851 1136.99C192.949 1134.99 210.365 1128.33 227.192 1116.59C229.548 1114.96 231.429 1113.53 232.714 1112.52C224.672 1121.86 212.458 1134.25 195.443 1145.87C195.443 1145.87 195.425 1145.88 195.406 1145.89C195.406 1145.89 195.388 1145.9 195.369 1145.91C191.281 1148.59 185.267 1152.58 177.993 1157.55C170.774 1162.48 167.161 1164.96 166.106 1165.98C156.917 1175 154.777 1191.88 158.723 1204.68C162.197 1215.99 171.136 1222.56 188.871 1235.25C208.989 1249.64 219.025 1256.83 228.114 1256.68C246.665 1256.37 261.034 1238.68 286.349 1207.51C289.84 1200.6 293.681 1193.31 297.959 1185.67C317.254 1151.24 345.193 1109.52 386.651 1062.07C408.058 1043.44 429.528 1019.97 448.062 990.526C452.542 983.708 456.728 976.765 460.623 969.744C478.252 938.73 499.944 889.945 495.738 828.315C495.734 828.096 495.702 827.869 495.698 827.65C494.077 796.753 486.126 766.657 471.258 738.858C471.194 738.748 471.13 738.637 471.077 738.545C470.336 737.176 469.566 735.8 468.789 734.454C468.512 733.974 468.264 733.502 467.987 733.022C467.848 732.782 467.721 732.561 467.582 732.321C467.177 731.62 466.783 730.937 466.378 730.236C465.974 729.535 465.58 728.853 465.175 728.152C465.036 727.912 464.908 727.69 464.77 727.45C464.493 726.971 464.227 726.509 463.931 726.04C463.143 724.675 462.347 723.339 461.532 722.013C461.469 721.903 461.405 721.792 461.351 721.7C444.711 694.924 422.623 672.99 396.676 656.138C396.488 656.025 396.307 655.884 396.119 655.771C344.849 621.313 291.736 615.717 256.081 615.467C248.053 615.329 239.947 615.483 231.803 615.954C197.196 617.263 166.25 624.06 139.503 633.229C53.9384 650.108 -9.15994 650.106 -52.789 646.316C-72.0413 644.639 -107.758 640.488 -120.737 659.396C-122.3 661.676 -123.165 664.611 -123.535 668.318C-120.885 682.114 -114.978 694.177 -108.648 707.102C-96.2347 732.481 -88.9121 747.466 -73.489 754.232C-54.8376 762.455 -39.1688 752.597 0.353294 739.938C57.8799 721.51 99.5455 718.659 99.64 719.121C99.7693 719.686 40.1146 726.97 -26.0359 760.34C-27.927 761.284 -29.7599 762.244 -31.5743 763.193C-31.8696 763.364 -32.1756 763.516 -32.5 763.678C-34.0085 764.476 -35.517 765.273 -36.9779 766.067C-37.1256 766.152 -37.2547 766.227 -37.4024 766.312C-39.0294 767.202 -40.6195 768.071 -42.1805 768.948L-42.2175 768.969C-43.8786 769.928 -45.5318 770.858 -47.1376 771.785C-53.2903 781.758 -61.6726 798.184 -65.2449 820C-70.5995 852.71 -62.1156 878.956 -57.3486 890.963C-70.3378 863.777 -83.3562 836.582 -96.3454 809.396C-100.093 813.306 -104.471 817.998 -108.084 822.225C-128.306 845.978 -143.808 873.132 -138.785 898.326C-138.122 906.848 -135.591 915.325 -131.074 923.148L-102.644 972.391C-87.9775 983.898 -74.8519 989.285 -65.1289 992.06C-51.0154 996.088 -40.2855 995.748 -32.4797 1005.09C-25.7737 1013.13 -25.4873 1023.17 -25.3004 1032.83C-24.8595 1054.22 -33.9053 1072.48 -36.0004 1072.09C-36.0188 1072.1 -36.0692 1072.06 -36.109 1072.03C-36.0853 1073.86 -36.0033 1075.71 -35.8184 1077.52C-35.0056 1085.84 -32.4677 1093.94 -28.2494 1101.25L-20.5692 1114.55C-21.1715 1113.42 -21.7736 1112.29 -22.3574 1111.15C1.71109 1142.4 26.1627 1150.86 38.4579 1153.7C48.4776 1156.01 68.768 1158.76 71.8842 1151.97C72.6854 1150.2 72.2293 1148.01 71.0589 1145.68C71.0056 1145.59 70.9417 1145.48 70.8884 1145.39C70.75 1145.15 70.6193 1144.88 70.4702 1144.62L70.4915 1144.65ZM442.698 829.836C466.626 839.441 465.829 886.567 455.588 891.077C443.932 896.208 405.666 852.348 414.327 835.638C418.453 827.696 433.11 825.974 442.698 829.836ZM380.328 857.777C383.734 858.221 387.11 858.953 390.397 859.958C404.906 864.373 417.812 874.068 425.993 888.238C443.1 917.869 432.939 955.764 403.298 972.878C373.657 989.991 335.757 979.843 318.65 950.213C311.683 938.146 309.247 924.719 310.78 911.903C310.703 897.704 317.946 883.141 330.85 873.182C334.012 870.347 337.506 867.789 341.345 865.573C353.619 858.486 367.3 856.098 380.338 857.795L380.328 857.777ZM368.304 700.981C366.844 711.197 358.035 723.048 349.094 722.65C330.292 721.796 311.441 666.726 321.712 659.198C330.739 652.584 371.95 675.457 368.304 700.981ZM267.433 782.564C256.696 784.852 245.907 783.726 236.844 779.536C223.639 774.737 211.969 765.436 204.395 752.318C187.288 722.687 197.449 684.791 227.09 667.678C256.732 650.564 294.631 660.712 311.739 690.343C328.846 719.974 318.684 757.87 289.043 774.983C282.159 778.958 274.832 781.441 267.433 782.564Z" fill="#31AF97"/>
<path d="M279.44 1221.75C281.564 1217.21 283.867 1212.46 286.359 1207.52C261.045 1238.7 246.676 1256.39 228.124 1256.69C219.054 1256.84 209 1249.65 188.881 1235.27C171.146 1222.58 162.208 1216.01 158.734 1204.7C154.788 1191.9 156.928 1175.02 166.116 1166C167.172 1164.97 170.803 1162.48 178.003 1157.56C185.277 1152.6 191.31 1148.6 195.38 1145.93C195.38 1145.93 195.398 1145.92 195.417 1145.91C195.417 1145.91 195.435 1145.9 195.454 1145.89C212.468 1134.27 224.664 1121.89 232.725 1112.54C231.439 1113.55 229.529 1114.97 227.202 1116.61C210.376 1128.34 192.978 1134.99 181.861 1137.01C154.309 1141.97 132.241 1134.1 120.057 1129.27C62.2839 1106.44 11.4708 1028.92 -12.9673 986.716L-12.9886 986.679C-13.5318 985.738 -14.0644 984.816 -14.597 983.893C-14.6503 983.801 -14.7035 983.709 -14.7568 983.617C-15.2361 982.787 -15.7049 981.975 -16.1522 981.2C-16.2268 981.071 -16.312 980.923 -16.3866 980.794C-16.802 980.074 -17.2175 979.355 -17.5932 978.662C-17.7103 978.459 -17.8275 978.256 -17.9447 978.053C-18.3069 977.425 -18.6583 976.817 -18.9808 976.215C-19.1086 975.994 -19.2364 975.773 -19.3642 975.551C-19.6731 975.016 -19.9636 974.47 -20.2328 973.962C-20.3926 973.685 -20.5417 973.427 -20.7015 973.15C-20.9678 972.689 -21.2156 972.217 -21.4528 971.763C-21.6019 971.505 -21.7404 971.265 -21.8711 970.996C-22.1054 970.59 -22.3213 970.174 -22.5265 969.776C-22.7076 969.462 -22.878 969.167 -23.03 968.861C-23.2004 968.566 -23.3709 968.271 -23.5122 967.983C-23.7146 967.633 -23.8879 967.29 -24.0612 966.947C-24.189 966.726 -24.3062 966.523 -24.4156 966.291C-24.6393 965.903 -24.8338 965.524 -25.0177 965.162C-25.071 965.07 -25.1349 964.959 -25.1882 964.867C-26.6298 962.157 -27.6106 960.288 -28.0821 959.429C-28.178 959.262 -28.2419 959.152 -28.2952 959.06C-28.4123 958.857 -28.4443 958.801 -28.396 958.97C-6.85606 1021.17 11.3088 1061.92 26.4718 1088.74C26.5251 1088.83 26.589 1088.95 26.6422 1089.04C27.4198 1090.38 28.1761 1091.69 28.9111 1092.97C29.2094 1093.48 29.497 1093.98 29.8137 1094.49C30.2505 1095.24 30.7056 1095.99 31.1502 1096.72C31.4804 1097.29 31.8475 1097.84 32.1671 1098.39C32.5583 1099.03 32.9603 1099.68 33.3409 1100.3C33.6789 1100.84 34.0169 1101.38 34.3628 1101.9C34.7619 1102.5 35.1425 1103.12 35.5309 1103.71C35.8476 1104.21 36.1722 1104.69 36.4967 1105.17C36.9491 1105.87 37.3985 1106.52 37.8587 1107.19C38.1938 1107.68 38.5397 1108.2 38.8933 1108.68C39.4465 1109.47 39.989 1110.24 40.5209 1110.99C40.8028 1111.39 41.0925 1111.76 41.3637 1112.15C41.7493 1112.69 42.1534 1113.22 42.5283 1113.74C42.8287 1114.13 43.0999 1114.52 43.3896 1114.89C43.7724 1115.38 44.1445 1115.86 44.4981 1116.34C44.7772 1116.7 45.0562 1117.05 45.3246 1117.39C45.7472 1117.91 46.1405 1118.42 46.5524 1118.92C46.7782 1119.18 46.9855 1119.46 47.2007 1119.7C47.817 1120.43 48.4043 1121.15 49.0071 1121.81C49.1718 1122.01 49.355 1122.2 49.5382 1122.39C49.9685 1122.88 50.3988 1123.37 50.8369 1123.83C51.0521 1124.07 51.2857 1124.3 51.5009 1124.55C51.8886 1124.97 52.2656 1125.36 52.632 1125.74C52.8549 1125.96 53.0594 1126.18 53.2824 1126.4C53.6779 1126.79 54.055 1127.18 54.4504 1127.57C54.623 1127.74 54.8062 1127.93 54.9972 1128.09C55.5546 1128.63 56.1013 1129.15 56.6558 1129.64C56.9079 1129.87 57.2104 1130.13 57.5342 1130.44C57.7465 1130.64 57.9985 1130.86 58.2506 1131.08C58.3514 1131.17 58.4416 1131.24 58.5531 1131.35C58.8556 1131.62 59.1793 1131.92 59.5322 1132.24C59.6728 1132.35 59.8056 1132.5 59.9568 1132.63C60.2089 1132.85 60.4716 1133.1 60.7265 1133.37C60.8778 1133.5 61.0106 1133.65 61.1724 1133.8C61.5466 1134.15 61.9024 1134.51 62.2872 1134.88C62.4598 1135.05 62.6323 1135.22 62.7942 1135.37C63.0676 1135.63 63.3225 1135.9 63.5774 1136.17C63.7606 1136.36 63.9332 1136.53 64.1164 1136.72C64.4934 1137.12 64.8811 1137.54 65.2581 1137.93C65.4413 1138.12 65.5954 1138.31 65.7601 1138.51C66.0257 1138.8 66.2621 1139.08 66.5277 1139.37C66.6924 1139.57 66.8757 1139.76 67.0404 1139.96C67.4096 1140.38 67.7604 1140.82 68.1112 1141.26C68.2362 1141.43 68.3902 1141.61 68.5152 1141.79C68.7439 1142.1 68.9831 1142.43 69.2118 1142.74C69.3474 1142.93 69.4937 1143.14 69.6293 1143.33C69.9325 1143.77 70.228 1144.24 70.5021 1144.67C70.6512 1144.93 70.7897 1145.17 70.9204 1145.44C70.9843 1145.55 71.0376 1145.64 71.0908 1145.74C72.3436 1148.16 72.8714 1150.44 72.0439 1152.25C68.9277 1159.04 48.6558 1156.28 38.6176 1153.98C26.3331 1151.16 1.87085 1142.67 -22.1976 1111.43C-21.5954 1112.56 -20.9932 1113.69 -20.4095 1114.82L0.564534 1151.15C5.08104 1158.98 11.1563 1165.41 18.2054 1170.24C37.5128 1187.19 68.7614 1187.35 99.4616 1181.7C111.719 1179.45 128.024 1174.96 128.024 1174.96L128.061 1174.93C128.7 1174.76 129.328 1174.57 130.004 1174.38C130.915 1174.12 131.796 1173.86 132.678 1173.6C146.327 1169.7 156.204 1165.97 162.262 1163.5C157.126 1170.68 145.95 1188.44 150.943 1206.77C153.096 1214.67 158.248 1218.91 186.538 1242.84C211.509 1263.97 224.227 1274.84 234.138 1274.06C257.002 1272.27 271.266 1239.26 279.44 1221.75Z" fill="#26917D"/>
<path d="M181.686 1136.79C152.532 1141.96 129.307 1132.76 119.881 1129.05C62.2352 1106.27 11.4654 1028.99 -13.0046 986.737C11.4334 1028.94 62.265 1106.45 120.019 1129.29C129.427 1133.01 152.66 1142.18 181.824 1137.03C201.361 1133.57 216.321 1124.96 226.115 1117.76C226.465 1117.38 226.778 1117.03 227.128 1116.66C226.754 1116.94 226.369 1117.22 225.977 1117.52C216.172 1124.7 201.241 1133.32 181.686 1136.79Z" fill="#26917D"/>
<path d="M229.488 930.301C228.71 928.954 228.692 927.218 229.612 925.826C230.906 923.849 233.547 923.308 235.524 924.602C241.905 928.79 249.498 931.073 257.478 931.213C259.839 931.252 261.721 933.191 261.67 935.533C261.63 937.893 259.69 939.776 257.348 939.726C247.745 939.588 238.585 936.808 230.853 931.727C230.285 931.341 229.837 930.862 229.507 930.29L229.488 930.301Z" fill="#26917D"/>
<path d="M214.856 914.419C211.777 909.087 209.516 903.21 208.218 897.169C207.727 894.869 209.195 892.595 211.495 892.104C213.795 891.612 216.059 893.06 216.561 895.378C218.058 902.361 221.044 909.026 225.202 914.694C226.603 916.566 226.192 919.264 224.29 920.657C222.387 922.051 219.718 921.648 218.325 919.747C217.078 918.056 215.921 916.264 214.856 914.419Z" fill="#26917D"/>
<path d="M495.756 828.305C493.909 807.502 487.797 769.85 464.309 729.807C438.026 685.007 403.428 660.161 385.3 648.881C383.659 663.259 380.306 708.983 408.396 755.889C437.823 805.025 482.545 823.41 495.774 828.294L495.756 828.305Z" fill="#26917D"/>
<path d="M510.858 568.075C541.026 590.534 475.496 682.562 519.842 754.301C537.825 783.401 563.646 792.577 559.546 802.398C553.5 816.86 488.955 817.25 448.245 783.608C398.044 742.137 384.211 649.042 429.799 598.81C451.805 574.568 492.811 554.632 510.858 568.075Z" fill="#1D423B"/>
</g>
<path d="M850.377 310.652C796.176 332.007 745.201 314.872 714.141 264.933L684.99 269.85L654.584 196.009L730.619 180.063L739.43 202.426C748.689 225.925 772.143 239.891 796.78 230.185C812.699 223.913 819.659 209.348 813.238 193.05C804.875 171.825 781.777 162.097 760.689 158.583L777.249 101.704C831.141 110.684 875.799 135.124 896.706 188.188C918.508 243.526 899.271 291.389 850.377 310.652ZM626.378 281.12C600.604 291.275 578.057 277.389 568.499 253.132C561.182 234.559 567.556 216.285 586.507 208.818C612.281 198.664 635.885 213.009 645.443 237.266C652.611 255.46 644.571 273.952 626.378 281.12Z" fill="#E3562B"/>
<path d="M816.617 599.134C758.361 599.134 717.215 564.506 706.623 506.657L677.698 500.546L676.476 420.699L753.065 433.735V457.771C753.065 483.029 769.767 504.62 796.247 504.62C813.358 504.62 825.172 493.621 825.172 476.103C825.172 453.29 807.247 435.772 788.914 424.773L825.172 377.924C872.021 406.033 904.612 445.142 904.612 502.176C904.612 561.654 869.169 599.134 816.617 599.134ZM619.035 489.547C591.333 489.547 575.445 468.363 575.445 442.29C575.445 422.329 588.074 407.663 608.443 407.663C636.145 407.663 652.848 429.662 652.848 455.734C652.848 475.289 638.59 489.547 619.035 489.547Z" fill="#72B7FC"/>
<path d="M797.084 907.924C740.008 896.256 706.632 854.088 707.842 795.29L680.728 783.509L695.525 705.035L767.95 733.149L763.135 756.697C758.076 781.443 770.115 805.943 796.059 811.247C812.822 814.674 826.6 806.264 830.109 789.101C834.678 766.75 820.626 745.997 804.868 731.549L849.775 692.911C890.044 729.835 914.141 774.68 902.716 830.558C890.803 888.83 848.571 918.451 797.084 907.924ZM625.457 760.982C598.316 755.434 586.993 731.497 592.216 705.952C596.214 686.395 611.525 674.556 631.481 678.636C658.622 684.185 670.58 709.083 665.358 734.628C661.441 753.786 644.615 764.899 625.457 760.982Z" fill="#31AF97"/>
</g>
<defs>
<radialGradient id="paint0_radial_4743_10417" cx="0" cy="0" r="1" gradientUnits="userSpaceOnUse" gradientTransform="translate(372.321 919.225) rotate(60) scale(66.7675 66.7912)">
<stop stop-color="#1D423B"/>
<stop offset="0.49" stop-color="#1D423B" stop-opacity="0.97"/>
<stop offset="0.66" stop-color="#1D423B" stop-opacity="0.87"/>
<stop offset="0.79" stop-color="#1D423B" stop-opacity="0.69"/>
<stop offset="0.89" stop-color="#1D423B" stop-opacity="0.43"/>
<stop offset="0.98" stop-color="#1D423B" stop-opacity="0.11"/>
<stop offset="1" stop-color="#1D423B" stop-opacity="0"/>
</radialGradient>
<radialGradient id="paint1_radial_4743_10417" cx="0" cy="0" r="1" gradientUnits="userSpaceOnUse" gradientTransform="translate(625.295 507.859) rotate(60) scale(66.7675 66.7912)">
<stop stop-color="#1D423B"/>
<stop offset="0.49" stop-color="#1D423B" stop-opacity="0.97"/>
<stop offset="0.66" stop-color="#1D423B" stop-opacity="0.87"/>
<stop offset="0.79" stop-color="#1D423B" stop-opacity="0.69"/>
<stop offset="0.89" stop-color="#1D423B" stop-opacity="0.43"/>
<stop offset="0.98" stop-color="#1D423B" stop-opacity="0.11"/>
<stop offset="1" stop-color="#1D423B" stop-opacity="0"/>
</radialGradient>
<clipPath id="clip0_4743_10417">
<rect width="1000" height="1000" fill="white" transform="matrix(0 1 -1 0 1000 0)"/>
</clipPath>
<clipPath id="clip1_4743_10417">
<rect width="648.871" height="811.408" fill="white" transform="translate(646.297 -148.992) rotate(105)"/>
</clipPath>
<clipPath id="clip2_4743_10417">
<rect width="785.812" height="819.087" fill="white" transform="translate(380.094 326.985) rotate(60)"/>
</clipPath>
</defs>
</svg>
